<svg xmlns="http://www.w3.org/2000/svg" viewBox="0 0 323.59 182.86"><defs><style>.cls-1{fill:#ebf0f3;}.cls-2{fill:#b7d0e3;}.cls-3{fill:#fff;}.cls-4{fill:#494f74;}.cls-5{fill:#0094f8;}.cls-6{fill:#c4d6d6;}.cls-10,.cls-7{fill:#002d41;}.cls-8{fill:#101017;}.cls-9{fill:#2f3451;}.cls-10{stroke:#002d41;}.cls-10,.cls-17,.cls-23{stroke-miterlimit:10;}.cls-11{fill:#252739;}.cls-12{fill:#3b4062;}.cls-13{fill:#00212d;}.cls-14{fill:#25273a;}.cls-15{fill:#eff7ff;}.cls-16{fill:#fab69a;}.cls-17{fill:#ff710f;stroke:#ff710f;}.cls-18{fill:#e25107;}.cls-19{fill:#ffd34b;}.cls-20{fill:#ffb596;}.cls-21{fill:#e1eaef;}.cls-22{fill:#c0cfd9;}.cls-23{fill:#0096b9;stroke:#0096b9;}</style></defs><title>Untitled-6</title><g id="Layer_2" data-name="Layer 2"><path class="cls-1" d="M110.91,25.94h44.68A6.42,6.42,0,0,1,162,32.36V56.85a6.42,6.42,0,0,1-6.42,6.42H127.65l-6.77,9.12a1.25,1.25,0,0,1-2.26-.75V63.27h-7.72a6.42,6.42,0,0,1-6.42-6.42V32.36A6.42,6.42,0,0,1,110.91,25.94Z" transform="translate(-13.21 -9)"/><circle class="cls-2" cx="120.04" cy="23.95" r="23.95"/><circle class="cls-3" cx="120.04" cy="23.95" r="21.23"/><rect class="cls-2" x="119.6" y="4.29" width="0.87" height="3.65"/><rect class="cls-2" x="123.61" y="15.75" width="0.87" height="2.51" transform="translate(-5.08 55.34) rotate(-30.02)"/><rect class="cls-2" x="116.87" y="22.49" width="0.87" height="2.51" transform="translate(24.89 104.47) rotate(-60)"/><rect class="cls-2" x="114.97" y="31.13" width="0.87" height="3.65" transform="translate(69.25 139.36) rotate(-90)"/><rect class="cls-2" x="116.87" y="40.9" width="0.87" height="2.51" transform="translate(126.24 155.82) rotate(-120)"/><rect class="cls-2" x="123.61" y="47.63" width="0.87" height="2.51" transform="translate(193.79 144.27) rotate(-149.99)"/><rect class="cls-2" x="132.81" y="48.89" width="0.87" height="3.72" transform="translate(253.29 92.5) rotate(180)"/><rect class="cls-2" x="142.01" y="47.63" width="0.87" height="2.51" transform="translate(277.05 10.98) rotate(149.99)"/><rect class="cls-2" x="148.75" y="40.9" width="0.87" height="2.51" transform="translate(247.12 -74.93) rotate(120.02)"/><rect class="cls-2" x="150.61" y="31.09" width="0.87" height="3.72" transform="translate(170.79 -127.1) rotate(90)"/><rect class="cls-2" x="148.75" y="22.49" width="0.87" height="2.51" transform="translate(81.9 -126.31) rotate(59.98)"/><rect class="cls-2" x="142.01" y="15.75" width="0.87" height="2.51" transform="translate(14.41 -77.98) rotate(30.02)"/><rect class="cls-4" x="126.78" y="18.56" width="1.57" height="17.66" transform="translate(223.92 -52.47) rotate(134.99)"/><rect class="cls-4" x="127.07" y="32.45" width="1" height="11.97" transform="translate(68.86 -95.79) rotate(53.27)"/><circle class="cls-5" cx="120.04" cy="24.24" r="2.89"/><circle class="cls-3" cx="120.04" cy="24.24" r="1.53"/><ellipse class="cls-1" cx="161.79" cy="178.73" rx="161.79" ry="4.13"/><polygon class="cls-2" points="185.71 110.39 188.46 110.39 180.76 90.38 178.01 90.38 185.71 110.39"/><rect class="cls-2" x="198.91" y="119.39" width="29.34" height="2.42" transform="translate(413.96 232.2) rotate(180)"/><path class="cls-6" d="M315.4,78.54c-1.38-.06-2.63,3.81-2.22,3.8s1,.35,1.35.38a3.29,3.29,0,0,0,1.87-.38c.7-.38,3.44-3.65,2.06-3.5A10.31,10.31,0,0,1,315.4,78.54Z" transform="translate(-13.21 -9)"/><path class="cls-6" d="M320.74,77.3c.14-.23.29-.68-.14-.82s-1.2.73-1.7,1.31A3.62,3.62,0,0,1,317,79a21.76,21.76,0,0,1-2.13.45c-.38.07-.25.52.12.45l.44-.08c-.11.15,0,.33.23.35a5.15,5.15,0,0,0,3.74-1A10,10,0,0,0,320.74,77.3Z" transform="translate(-13.21 -9)"/><path class="cls-6" d="M321.32,81.06c.26-.15.89-.64.78-.89-.33-.72-1.81.26-2.58.59a3.94,3.94,0,0,1-2.33.32,18.82,18.82,0,0,1-2-.47c-.35-.09-.52.37-.18.47l.41.11c-.18.09-.53.63-.36.73a5.44,5.44,0,0,0,4,.26A13.33,13.33,0,0,0,321.32,81.06Z" transform="translate(-13.21 -9)"/><path class="cls-6" d="M318.59,83.54c.3,0,1-.08,1-.36.2-.82-1.43-.66-2.25-.7a3.17,3.17,0,0,1-2.06-.73,13,13,0,0,1-1.29-1.3c-.21-.24-.66.11-.45.34l.25.28c-.2,0-1,.15-1,.32a4.57,4.57,0,0,0,3.23,2.18A13.36,13.36,0,0,0,318.59,83.54Z" transform="translate(-13.21 -9)"/><path class="cls-6" d="M321.64,79c.21-.19.68-.68.49-.9-.42-.51-1.71.5-2.38,1a3.92,3.92,0,0,1-2.23.76,21.12,21.12,0,0,1-2.14-.05c-.37,0-.41.45,0,.48l.44,0c-.15.12-.27.54-.06.61a5.49,5.49,0,0,0,4-.38A12,12,0,0,0,321.64,79Z" transform="translate(-13.21 -9)"/><path class="cls-6" d="M317.45,77.5c.5-.24.26-.82-.28-.7a7.43,7.43,0,0,0-2.67.94,5.69,5.69,0,0,0-1.44,2c-.09.17.05.27.22.28a.24.24,0,0,0,.24.12c1.1-.12,1.66-.43,2-1.17A3.48,3.48,0,0,1,317.45,77.5Z" transform="translate(-13.21 -9)"/><path class="cls-6" d="M314.52,83l-3.23,5.08s-4.16-2-3.07-2.12,4.76-6.29,5.35-7.12.75,1.39.75,1.39Z" transform="translate(-13.21 -9)"/><path class="cls-6" d="M315,81.33a.11.11,0,0,1,0-.22,1.66,1.66,0,0,0,1.22-1.86.11.11,0,0,1,.11-.12.11.11,0,0,1,.12.11,1.9,1.9,0,0,1-1.4,2.09Z" transform="translate(-13.21 -9)"/><path class="cls-6" d="M226.22,74.85c-1.35-.31,1,3.25,1.67,3.7a3.3,3.3,0,0,0,1.81.59c.31,0,1.08-.27,1.38-.23s-.41-3.92-1.79-4A10.33,10.33,0,0,1,226.22,74.85Z" transform="translate(-13.21 -9)"/><path class="cls-6" d="M224.12,73.06c-.12-.24-.21-.71.23-.8s1.11.86,1.55,1.49a3.62,3.62,0,0,0,1.79,1.42c.67.27,1.38.48,2.07.68.37.11.19.54-.17.44l-.43-.12c.09.16,0,.33-.27.32A5.15,5.15,0,0,1,225.28,75,10,10,0,0,1,224.12,73.06Z" transform="translate(-13.21 -9)"/><path class="cls-6" d="M223.12,76.74c-.24-.18-.81-.73-.67-1,.41-.68,1.77.46,2.5.87a3.94,3.94,0,0,0,2.28.58,19.13,19.13,0,0,0,2.05-.24c.35-.05.48.43.13.48l-.42.07c.17.11.46.69.27.77a5.43,5.43,0,0,1-4-.19A13.21,13.21,0,0,1,223.12,76.74Z" transform="translate(-13.21 -9)"/><path class="cls-6" d="M225.57,79.5c-.3-.05-.94-.19-1-.47-.1-.84,1.5-.5,2.31-.45a3.16,3.16,0,0,0,2.12-.5,13.16,13.16,0,0,0,1.42-1.15c.24-.21.65.18.41.39l-.28.25c.2,0,1,.26.93.42a4.57,4.57,0,0,1-3.45,1.81A13.37,13.37,0,0,1,225.57,79.5Z" transform="translate(-13.21 -9)"/><path class="cls-6" d="M223,74.69c-.19-.21-.6-.75-.39-.95.48-.46,1.65.69,2.26,1.21a3.93,3.93,0,0,0,2.13,1,21.08,21.08,0,0,0,2.13.18c.37,0,.36.5,0,.48l-.44,0c.14.14.21.57,0,.61a5.49,5.49,0,0,1-3.94-.82A12,12,0,0,1,223,74.69Z" transform="translate(-13.21 -9)"/><path class="cls-6" d="M227.37,73.62c-.47-.29-.17-.85.35-.67a7.45,7.45,0,0,1,2.55,1.23,5.68,5.68,0,0,1,1.21,2.1c.07.17-.08.26-.25.25a.24.24,0,0,1-.25.09c-1.08-.24-1.6-.61-1.87-1.39S228,74,227.37,73.62Z" transform="translate(-13.21 -9)"/><path class="cls-6" d="M229.67,79.42l2.65,5.41s4.36-1.57,3.29-1.77-4-6.78-4.54-7.66-.9,1.29-.9,1.29Z" transform="translate(-13.21 -9)"/><path class="cls-6" d="M229.44,77.7h0a1.9,1.9,0,0,1-1.16-2.23.12.12,0,0,1,.13-.09.11.11,0,0,1,.09.13,1.66,1.66,0,0,0,1,2,.11.11,0,0,1,0,.22Z" transform="translate(-13.21 -9)"/><path class="cls-7" d="M259.94,100.86c-1,.43-2,.83-3,1.2-4.62,1.66-9.19,2.59-12.5,2.05a2.89,2.89,0,0,1-1-.33l-.4-.24c-2.28-1.68-2.31-6.45,3.65-10.17l2-1.22c7.36-4.48,19.28-10.8,26.25-4.38C277.79,90.44,269.33,96.87,259.94,100.86Z" transform="translate(-13.21 -9)"/><path class="cls-7" d="M234.43,78.49c6.27,4.15,13,12.2,16.93,16.81,3,3.48-6.58,9.2-7.94,8.48s-13.33-8.9-17.28-18C226.14,85.81,233.2,77.68,234.43,78.49Z" transform="translate(-13.21 -9)"/><path class="cls-8" d="M262.44,88.29l-2.5,12.57c-1,.43-2,.83-3,1.2C258.87,93,262.44,88.29,262.44,88.29Z" transform="translate(-13.21 -9)"/><path class="cls-9" d="M224.55,184.15a6.13,6.13,0,0,0,2.1-2.76,0,0,0,0,0,0,0c.51-1.15,2.17-3.89,2.71-5-1-1.68-4.18-1.38-6.26-2.49a11.25,11.25,0,0,1-2.69,3.33,2.2,2.2,0,0,1-.42.21c-2,.79-5.33-.39-7.2-.3a1.53,1.53,0,0,0-1.14.37C210.45,178.78,222.45,185.72,224.55,184.15Z" transform="translate(-13.21 -9)"/><path class="cls-10" d="M211.84,177.37a.49.49,0,0,0-.16.13c-1.34,1.35,10.9,8.5,12.93,7h0a1.83,1.83,0,0,0,.36-.25,7.42,7.42,0,0,0,1.67-2.83,0,0,0,0,0,0,0,11,11,0,0,1-6.65-4c-1.78.69-4.53-.12-6.44-.28A2.37,2.37,0,0,0,211.84,177.37Z" transform="translate(-13.21 -9)"/><path class="cls-11" d="M211.84,177.37a.49.49,0,0,0-.16.13c-1.34,1.35,10.9,8.5,12.93,7h0a1.83,1.83,0,0,0,.36-.25,12.77,12.77,0,0,1-4.87-1.32A27.32,27.32,0,0,1,211.84,177.37Z" transform="translate(-13.21 -9)"/><path class="cls-12" d="M248.17,143.67c.49-.11,19.23-1.41,25.77-3.57,5.3-1.75,13-3.24,13.47-9,.78-9-2.24-12.71-8.46-13.75-3.31-.55-7.86-1.87-10.82-.66-4.2,1.72-32.52,10.41-33.57,19C233.63,143.28,242.3,145,248.17,143.67Z" transform="translate(-13.21 -9)"/><path class="cls-12" d="M235.48,133.45c-3,4-15.39,30-17,38,3.14,4.24,9.45,6.88,16.39,7.54.13.51,5.28-13.72,8.32-20.13a125.64,125.64,0,0,1,7.52-12.74c.86-1.36,1.69-2.73,2.48-4.11C255.56,138,239,128.74,235.48,133.45Z" transform="translate(-13.21 -9)"/><path class="cls-13" d="M305.57,113.39s-12.35-2.57-22.82,4.45-13.68,24.43-13.68,24.43h0l33.38-21.47Z" transform="translate(-13.21 -9)"/><path class="cls-8" d="M259.58,123.79s-20.85,4-22.5,10.8,6.16,24.3,6.16,24.3L241,136.47Z" transform="translate(-13.21 -9)"/><path class="cls-12" d="M238.34,136.85a6.84,6.84,0,0,0,.29,2.14c1.46,5,8.42,6,13.39,4.89l2-.18c1.25-.11,3-.26,5-.46,6.17-.61,14.75-1.6,18.75-2.93,5.3-1.75,13-3.24,13.47-9,.35-4-.06-7-1.18-9.1-1.37-2.67-3.84-4.07-7.28-4.65s-6.47,1.13-9.43,2.33c-4.2,1.72-33.92,7.42-35,16a.11.11,0,0,1,0,.05C238.37,136.24,238.35,136.56,238.34,136.85Z" transform="translate(-13.21 -9)"/><path class="cls-12" d="M238.33,136.66c0,.06,0,.12,0,.19a20.75,20.75,0,0,0,.29,2.14c1.41,8.39,7.43,31.37,10.93,37.78,4.14-2.27,11.06-3.2,17.43-4.66,0,0,0-.08,0-.33-.54-2.14-4.84-14.3-6.41-20.47a71.68,71.68,0,0,1-1.5-8.07c-.29-2.13-.54-4.28-.83-6.41,0,0,0-.09,0-.13-.2-1.58-.43-3.18-.71-4.75-.79-4.42-17.89-1.44-19.09,4A2.57,2.57,0,0,0,238.33,136.66Z" transform="translate(-13.21 -9)"/><path class="cls-14" d="M257.51,174a.16.16,0,0,1-.15-.11c-.09-.28-8.67-28.44-9.29-34a3.82,3.82,0,0,1,.72-3c1.65-2,5.85-2.38,12.2-2.93,1.8-.16,3.83-.33,6-.56,12-1.29,16.14-11.89,16.18-12a.16.16,0,0,1,.3.11c0,.11-4.21,10.89-16.45,12.2-2.16.23-4.2.41-6,.56-6.27.54-10.42.9-12,2.81a3.52,3.52,0,0,0-.65,2.75c.62,5.49,9.2,33.63,9.28,33.91a.16.16,0,0,1-.11.2Z" transform="translate(-13.21 -9)"/><path class="cls-9" d="M253.24,140.19c.15.65.44,1.88.82,3.5,1.87,8,5.86,25.57,5.36,29.7,0,0,6.62-1.42,7.57-1.29l0-.33c-.54-2.14-4.84-14.3-6.41-20.47a71.68,71.68,0,0,1-1.5-8.07c6.17-.61,14.75-1.6,18.75-2.93,5.3-1.75,13-3.24,13.47-9,.35-4-.06-7-1.18-9.1l-2.56-1.61s-6.14,12.15-17.06,14.35c-5,1-9.23,1.38-12.25,1.86C254.66,137.39,252.77,138.1,253.24,140.19Z" transform="translate(-13.21 -9)"/><path class="cls-7" d="M292.05,121.41s-4-30.91-13.15-36.22c-5.9-3.41-15-.41-17,4.07-4,8.74-6.28,32.11-6.28,32.11S276.79,125.82,292.05,121.41Z" transform="translate(-13.21 -9)"/><path class="cls-6" d="M268.71,79.72s.11,3.5.22,4.29a3,3,0,0,0,.95,1.27c1.47-1.05,2.69-.81,3.15-1.27a13.2,13.2,0,0,1-.54-4.29C272.49,78,268.71,79.72,268.71,79.72Z" transform="translate(-13.21 -9)"/><path class="cls-6" d="M273,76.88s-.82,4.76-3.83,4.85-1.12-6.48-.67-6.66S271.85,74.25,273,76.88Z" transform="translate(-13.21 -9)"/><polygon class="cls-15" points="256.67 76.28 257.3 74.17 259.64 74.42 261.61 74.83 256.67 76.28"/><polygon class="cls-15" points="256.67 76.28 255.89 74.17 254.92 75.37 256.67 76.28"/><rect class="cls-11" x="299.19" y="138.4" width="0.88" height="49.45" transform="translate(-37.45 46.91) rotate(-10.25)"/><rect class="cls-11" x="245.74" y="162.69" width="49.45" height="0.88" transform="translate(48.66 391.29) rotate(-79.76)"/><rect class="cls-11" x="253.48" y="162.69" width="49.45" height="0.88" transform="translate(55.03 398.91) rotate(-79.76)"/><path class="cls-7" d="M305.57,113.39s-20.69,12-36.5,28.89c0,0,18.93,3.51,28.3-4.49S305.57,113.39,305.57,113.39Z" transform="translate(-13.21 -9)"/><rect class="cls-11" x="258.14" y="148.21" width="27.3" height="0.88"/><path class="cls-8" d="M267.13,74.57c.67,2.31,2.57,1.71,4.51,1.37a4.43,4.43,0,0,0,.11,1.71.45.45,0,0,0-.06.17c-.11.72-.18,1.43-.23,2.16a.45.45,0,0,0,.5.49c2.28-.35,3.11-3.14,2.64-5.16A2.44,2.44,0,0,0,273,73.47a15.39,15.39,0,0,0-3-.37C268.72,72.88,266.49,72.37,267.13,74.57Z" transform="translate(-13.21 -9)"/><path class="cls-6" d="M271.42,77.75A1.37,1.37,0,0,1,272.7,77c.83.12,1,2.1-.38,2.28S271.42,77.75,271.42,77.75Z" transform="translate(-13.21 -9)"/><path class="cls-8" d="M267,172.11c0-.8-17.23,3.4-17.43,4.66C249.29,178.49,267,174.43,267,172.11Z" transform="translate(-13.21 -9)"/><path class="cls-9" d="M265.61,179.62a6.14,6.14,0,0,0-1.29-3.22,0,0,0,0,0,0,0c-.72-1-1.33-1.85-2-2.87a13,13,0,0,0-6.24,2.07,11.25,11.25,0,0,1,1.47,4,2.2,2.2,0,0,1,0,.47c-.37,2.14-3.08,4.37-4,6a1.53,1.53,0,0,0-.27,1.17C253.74,188.95,265.87,182.23,265.61,179.62Z" transform="translate(-13.21 -9)"/><path class="cls-10" d="M253.25,187a.49.49,0,0,0,0,.2c.47,1.85,12.9-5,12.64-7.49h0a1.79,1.79,0,0,0,0-.44,7.42,7.42,0,0,0-1.57-2.89,0,0,0,0,0,0,0,11,11,0,0,1-6.81,3.67c-.32,1.88-2.44,3.83-3.55,5.38A2.37,2.37,0,0,0,253.25,187Z" transform="translate(-13.21 -9)"/><path class="cls-11" d="M253.25,187a.49.49,0,0,0,0,.2c.47,1.85,12.9-5,12.64-7.49h0a1.79,1.79,0,0,0,0-.44,12.73,12.73,0,0,1-3.64,3.5A27.33,27.33,0,0,1,253.25,187Z" transform="translate(-13.21 -9)"/><path class="cls-8" d="M274.82,90.3c.66,5.66,15.24,19.88,15.24,19.88a63.15,63.15,0,0,0-1.65-7.11C285.77,95.59,277.76,86.68,274.82,90.3Z" transform="translate(-13.21 -9)"/><path class="cls-7" d="M274.9,87.76c5.73-8,21.25,5,27.6,10.3s-1.15,13.05-3.57,12.78S271.25,92.88,274.9,87.76Z" transform="translate(-13.21 -9)"/><path class="cls-7" d="M309.19,82.33c-6.18,4.29-15.61,15.84-17.25,20.13s6.79,9,8.13,8.3S315,99,318.73,89.89C318.73,89.89,310.4,81.49,309.19,82.33Z" transform="translate(-13.21 -9)"/><path class="cls-7" d="M69.26,114s12.35-2.57,22.82,4.45,13.68,24.43,13.68,24.43h0L72.38,121.45Z" transform="translate(-13.21 -9)"/><path class="cls-14" d="M110.77,88.21a9.25,9.25,0,0,1-4.86-5.91h0c.21-1,.66-2.48-.23-3.08-.7-.48-.69-.94-1.31-.54-2,1.27-2.63,4.47-2.94,6.76-.19,1.38-.16,5.26.44,5.71,1,.79,7.59-1.19,8.9-2.17A.45.45,0,0,0,110.77,88.21Z" transform="translate(-13.21 -9)"/><path class="cls-12" d="M128.48,134.2c-.07,1.6-.09,3.21-.09,4.8,0,0,0,.09,0,.13,0,2.16,0,4.32,0,6.47a71.49,71.49,0,0,1-.44,8.2c-.75,6.33-3.43,18.94-3.68,21.13,0,.25,0,.37,0,.33,6.51.62,13.48.64,17.89,2.35,2.64-6.82,7.64-31,5.49-39.28C147.12,136.22,128.69,129.72,128.48,134.2Z" transform="translate(-13.21 -9)"/><path class="cls-8" d="M124.3,175.27c-.12-.79,17.52,1.12,17.89,2.35C142.68,179.28,124.64,177.56,124.3,175.27Z" transform="translate(-13.21 -9)"/><path class="cls-16" d="M129.86,175.35c-.36,2.27-1.26,6.83-1.3,7.32,0,0,0,0,0,0a6.17,6.17,0,0,0,.52,3.4c1.41-2.23,3-2.48,5.88-1.86,2.7.58,8,1.91,7.59,1.67-1.6-1-4.85-1.89-6.24-3.54A2,2,0,0,1,136,182c-.17-.3-.22-1.5.3-5.81A34.4,34.4,0,0,0,129.86,175.35Z" transform="translate(-13.21 -9)"/><path class="cls-12" d="M129.41,187a.43.43,0,0,0,.25.19c.79,0,1-2.25,1.49-2.07,6.8,2.35,12.23,2.62,12.76,2.14a.43.43,0,0,0,.16-.37c-.06-.66-1.4-1.55-2-1.76a52.58,52.58,0,0,1-5.8-2.82,11,11,0,0,1-7.74.32,0,0,0,0,0,0,0A6.57,6.57,0,0,0,129.41,187Z" transform="translate(-13.21 -9)"/><path class="cls-16" d="M135.79,181.47c1.36,1.8,4.61,3,4.61,3s-2.42,1-11.83-1.76C128.56,182.66,134.62,179.93,135.79,181.47Z" transform="translate(-13.21 -9)"/><path class="cls-11" d="M129.66,187.23c.79,0,1-2.25,1.49-2.07,6.8,2.35,12.23,2.62,12.76,2.14a.43.43,0,0,0,.16-.37c-3.69.5-7-.72-10.43-1.69-2.63-.74-2.81-1.35-3.79,1.34C129.79,186.66,129.59,187.22,129.66,187.23Z" transform="translate(-13.21 -9)"/><path class="cls-9" d="M147.9,139.33c-1-8.56-29.37-17.25-33.57-19-3-1.21-7.51.11-10.82.66-6.22,1-9.25,4.8-8.46,13.75.51,5.74,8.17,7.23,13.47,9,6.54,2.17,25.28,3.46,25.77,3.58C140.16,148.69,148.82,146.95,147.9,139.33Z" transform="translate(-13.21 -9)"/><path class="cls-8" d="M122.87,127.46s20.85,4,22.5,10.8S129.7,174,129.7,174l11.72-33.88Z" transform="translate(-13.21 -9)"/><path class="cls-12" d="M144.05,139.59a.11.11,0,0,1,0-.05c-1-8.55-30.77-14.25-35-16-3-1.21-6.12-2.89-9.43-2.33s-5.91,2-7.28,4.65c-1.12,2.15-1.53,5.1-1.18,9.1.51,5.75,8.17,7.23,13.47,9,4,1.33,12.58,2.32,18.75,2.93,2,.19,3.74.34,5,.46l2,.18c5,1.14,11.93.08,13.39-4.89a6.81,6.81,0,0,0,.29-2.14C144.11,140.22,144.09,139.91,144.05,139.59Z" transform="translate(-13.21 -9)"/><path class="cls-12" d="M144.11,140.9c-.3-5.55-16.68-11.28-18.18-7.05-.53,1.51-1,3-1.48,4.57,0,0,0,.09,0,.13-.64,2.06-1.23,4.14-1.86,6.19a71.56,71.56,0,0,1-2.8,7.71c-2.55,5.84-8.79,17.13-9.66,19.15-.09.23-.13.34-.08.32,6,2.48,12.72,4.53,16.43,7.45,4.5-5.76,14.19-27.44,17-35.49a20.71,20.71,0,0,0,.64-2.06c0-.06,0-.12,0-.18A2.58,2.58,0,0,0,144.11,140.9Z" transform="translate(-13.21 -9)"/><path class="cls-9" d="M129.21,143.86c-.15.65-.44,1.88-.82,3.5-1.87,8-10.19,23.53-9.69,27.66,0,0-7.76-3.23-8.71-3.1,0,0,5.22-10.25,8.68-17.14a27.66,27.66,0,0,0,2.93-8.06c-6.17-.61-12.94-1.42-16.95-2.75-5.3-1.75-13-3.24-13.47-9-.35-4,.06-7,1.18-9.1l2.56-1.61s6.14,12.15,17.06,14.35c5,1,9.23,1.38,12.25,1.86C127.8,141,129.69,141.76,129.21,143.86Z" transform="translate(-13.21 -9)"/><path class="cls-8" d="M110,171.93c.12-.79,16.44,6.17,16.43,7.45C126.42,181.11,109.65,174.22,110,171.93Z" transform="translate(-13.21 -9)"/><path class="cls-16" d="M137.78,74.17s0-.06,0-.09c.09-.48-.81-.68-.9-.19,0,0,0,.06,0,.09a.48.48,0,0,0-.81.13,7.66,7.66,0,0,1-2.57,2.77,5.13,5.13,0,0,1,.7-1.33c.32-.37-.24-.9-.55-.52a7.63,7.63,0,0,0-.48.64,14.92,14.92,0,0,0-2.35,6.42,9.81,9.81,0,0,0-.18,1.09.37.37,0,0,0,.2.33,11.55,11.55,0,0,0,2.51.86.38.38,0,0,0,.18,0,.38.38,0,0,0,.74-.11,30,30,0,0,1,.26-3.42,18.16,18.16,0,0,0,4.19-4.77c.21-.38-.35-.8-.63-.56h0v0a5.51,5.51,0,0,0,.35-.83C138.51,74.31,138,74.08,137.78,74.17Z" transform="translate(-13.21 -9)"/><path class="cls-16" d="M134.27,77.53a.11.11,0,0,1-.09,0,.11.11,0,0,1,0-.15,10.1,10.1,0,0,0,2.57-3.39.11.11,0,0,1,.15-.06A.11.11,0,0,1,137,74a10.11,10.11,0,0,1-2.64,3.48Z" transform="translate(-13.21 -9)"/><path class="cls-16" d="M135.05,78.16A.11.11,0,0,1,135,78c1.34-.91,2.68-3.8,2.7-3.83a.11.11,0,0,1,.2.09c-.06.12-1.38,3-2.77,3.92Z" transform="translate(-13.21 -9)"/><path class="cls-16" d="M135.75,78.61a.11.11,0,0,1-.09,0,.11.11,0,0,1,0-.15,14.85,14.85,0,0,0,2.29-3,.11.11,0,0,1,.15,0,.11.11,0,0,1,0,.15,14.75,14.75,0,0,1-2.35,3Z" transform="translate(-13.21 -9)"/><path class="cls-17" d="M98.57,90.48c.92-2.92,17.49,2.15,29,2.48,8.26.23,3.55,13.37,1.13,13.58S96.66,96.47,98.57,90.48Z" transform="translate(-13.21 -9)"/><path class="cls-17" d="M129.73,79.75c-3.81,6.27-5.08,14.49-6.53,18.85s4.79,8.46,6.09,7.65,9.86-11.55,11.34-19.06C140.63,87.19,130.49,78.49,129.73,79.75Z" transform="translate(-13.21 -9)"/><path class="cls-18" d="M98.57,90.48s26,11.35,30,10.61,12.1-13.9,12.1-13.9-.84,4.41-5.17,11.65c-3.91,6.52-5.86,7.94-6.71,7.7C111.42,101.63,107.92,101,98.57,90.48Z" transform="translate(-13.21 -9)"/><path class="cls-17" d="M85.2,127.55s4-34.16,11.69-37.44c6.27-2.68,12.11-.89,13.28,5.74A115.15,115.15,0,0,0,114.5,113a80.43,80.43,0,0,0,5.05,9.07S100.8,130.54,85.2,127.55Z" transform="translate(-13.21 -9)"/><path class="cls-16" d="M106.15,85.35s-.85,3.25-.91,4a3,3,0,0,1-.86,1.33c-1.54-1-2.74-.62-3.23-1.06a22.25,22.25,0,0,0,1.23-4.07C102.62,83.85,106.15,85.35,106.15,85.35Z" transform="translate(-13.21 -9)"/><path class="cls-16" d="M100.93,82.78s1.76,4.5,4.73,4-.21-6.57-.69-6.66S101.49,80,100.93,82.78Z" transform="translate(-13.21 -9)"/><path class="cls-14" d="M103.13,78.6l-.07,0c-2.27-.38-3.76,2.22-3.15,4.45.23.84,1.29,2.26,2.24,1.33.47-.46.49-1.47.56-2.07a6.78,6.78,0,0,0,0-.92,3.08,3.08,0,0,0,.54,0,33.12,33.12,0,0,0,3.81.33.45.45,0,0,0,.44-.44C107.62,79.27,105,77.88,103.13,78.6Z" transform="translate(-13.21 -9)"/><polygon class="cls-19" points="91.17 81.73 90.41 79.67 88.25 79.81 86.12 80.23 91.17 81.73"/><polygon class="cls-19" points="91.17 81.73 91.81 79.57 92.73 80.84 91.17 81.73"/><path class="cls-17" d="M97.7,92.2s6.71,9.94,8.27,19.82,8.54,12,8.54,12-13.92,6.22-29.31,3.51C85.2,127.55,89.24,99.12,97.7,92.2Z" transform="translate(-13.21 -9)"/><path class="cls-16" d="M110.49,131.6a9,9,0,0,0-2-3.25s0-.05,0-.08a7.22,7.22,0,0,1,2.22,2c.34.46,1-.13.66-.58a9.06,9.06,0,0,0-4.55-3.26,20.13,20.13,0,0,1-7.4-4.53.43.43,0,0,0-.17-.11.45.45,0,0,0-.53,0l-3.32,2.42a.44.44,0,0,0,0,.7,55.84,55.84,0,0,0,6.66,3.63,9.62,9.62,0,0,0,1.91.64,7.45,7.45,0,0,1,2.47.69,5,5,0,0,1,1.63,2.38.43.43,0,0,0,.81-.13h0a.43.43,0,0,0,.79-.06C110,132.47,110.67,132.1,110.49,131.6Z" transform="translate(-13.21 -9)"/><path class="cls-16" d="M109.5,129.71a.11.11,0,0,1-.1-.07,8,8,0,0,0-1-1.23.11.11,0,0,1,.16-.15,8.42,8.42,0,0,1,1,1.29.11.11,0,0,1-.06.14Z" transform="translate(-13.21 -9)"/><path class="cls-16" d="M109.74,132.17a.11.11,0,0,1-.1-.08,9.71,9.71,0,0,0-2-3.26.11.11,0,0,1,.16-.15,10,10,0,0,1,2,3.35.11.11,0,0,1-.07.14Z" transform="translate(-13.21 -9)"/><path class="cls-16" d="M108.95,132.21a.11.11,0,0,1-.1-.07,7.86,7.86,0,0,0-1.75-2.68.11.11,0,1,1,.13-.17,7.9,7.9,0,0,1,1.82,2.77.11.11,0,0,1-.06.14Z" transform="translate(-13.21 -9)"/><path class="cls-20" d="M97,92.61c2.84,1.15.54,18.89-4,25.83s-14.35,5.47-14.37,3S91.21,90.25,97,92.61Z" transform="translate(-13.21 -9)"/><path class="cls-20" d="M105.36,124.5c-6-4.28-14.06-6.18-18.29-8S78.26,120.67,79,122s10.77,10.72,18.13,12.77C97.11,134.8,106.55,125.36,105.36,124.5Z" transform="translate(-13.21 -9)"/><path class="cls-18" d="M87.74,101.61s-4.85,14.11-4.41,18.07S97.11,134.8,97.11,134.8s-4.33-1.17-11.22-6c-6.2-4.39-7.34-6.41-7.17-7.28S80.93,112.75,87.74,101.61Z" transform="translate(-13.21 -9)"/><path class="cls-16" d="M114.7,173.4a40.83,40.83,0,0,1-2.14,4s0,0,0,0a6.17,6.17,0,0,0-1.25,3.2c2.34-1.22,3.84-.64,6,1.35s6,5.68,5.72,5.25c-.89-1.64-3.24-4.07-3.62-6.2a2,2,0,0,1,0-.48,27.44,27.44,0,0,1,1.57-4.46C120.65,175.92,116.65,174.09,114.7,173.4Z" transform="translate(-13.21 -9)"/><path class="cls-12" d="M111.1,181.61a.44.44,0,0,0,.12.3c.67.42,2-1.45,2.33-1,4.7,5.45,9.26,8.4,10,8.26a.43.43,0,0,0,.32-.24c.28-.6-.43-2-.82-2.52a52.44,52.44,0,0,1-3.6-5.35,11,11,0,0,1-6.85-3.61,0,0,0,0,0,0,0A6.58,6.58,0,0,0,111.1,181.61Z" transform="translate(-13.21 -9)"/><path class="cls-16" d="M119.41,180c.27,2.24,2.5,4.87,2.5,4.87s-2.61-.34-9.35-7.46C112.56,177.41,119.18,178.08,119.41,180Z" transform="translate(-13.21 -9)"/><path class="cls-11" d="M111.22,181.9c.67.42,2-1.45,2.33-1,4.7,5.45,9.26,8.4,10,8.26a.43.43,0,0,0,.32-.24c-3.45-1.42-5.66-4.12-8.17-6.7-1.9-2-1.75-2.58-3.95-.75C111.61,181.48,111.16,181.86,111.22,181.9Z" transform="translate(-13.21 -9)"/><path class="cls-14" d="M105.64,89.58a9.25,9.25,0,0,1-3.24-6.93h0c.45-.91,1.25-2.24.54-3-.56-.64-.44-1.08-1.13-.85-2.23.74-3.66,3.67-4.53,5.81-.52,1.29-1.46,5.05-1,5.64.82,1,7.65.73,9.16.11A.45.45,0,0,0,105.64,89.58Z" transform="translate(-13.21 -9)"/><path class="cls-16" d="M102.62,83.32a1.37,1.37,0,0,0-1.41-.48c-.79.29-.58,2.27.84,2.15S102.62,83.32,102.62,83.32Z" transform="translate(-13.21 -9)"/><path class="cls-19" d="M102.35,84.59c-.16-.12-.37.12-.2.23s.63.77.22,1-1-.21-.74-.64c.11-.16-.12-.37-.23-.21-.45.63.25,1.33.93,1.19C103.15,86,102.85,85,102.35,84.59Z" transform="translate(-13.21 -9)"/><rect class="cls-11" x="50.46" y="163.32" width="49.45" height="0.88" transform="translate(-112.53 199.64) rotate(-79.76)"/><rect class="cls-11" x="103.91" y="139.03" width="0.88" height="49.45" transform="translate(-40.67 12.18) rotate(-10.25)"/><rect class="cls-11" x="96.17" y="139.03" width="0.88" height="49.45" transform="translate(-40.8 10.8) rotate(-10.25)"/><path class="cls-17" d="M69.26,114s20.39,13.3,36.2,30.19c0,0-18.64,2.21-28-5.79S69.26,114,69.26,114Z" transform="translate(-13.21 -9)"/><rect class="cls-11" x="62.97" y="148.84" width="27.3" height="0.88"/><rect class="cls-11" x="103.01" y="112.81" width="124.35" height="2.35"/><path class="cls-14" d="M116.36,188.53h-.06a.44.44,0,0,1-.38-.49l8.8-65.11a.44.44,0,0,1,.87.12l-8.8,65.11A.44.44,0,0,1,116.36,188.53Z" transform="translate(-13.21 -9)"/><path class="cls-14" d="M154.33,188.53a.44.44,0,0,1-.44-.38L145.09,123a.44.44,0,0,1,.87-.12l8.8,65.11a.44.44,0,0,1-.38.49Z" transform="translate(-13.21 -9)"/><path class="cls-14" d="M196.83,188.53h-.06a.44.44,0,0,1-.38-.49l8.8-65.11a.43.43,0,0,1,.49-.38.44.44,0,0,1,.38.49l-8.8,65.11A.44.44,0,0,1,196.83,188.53Z" transform="translate(-13.21 -9)"/><path class="cls-14" d="M234.79,188.53a.44.44,0,0,1-.44-.38L225.56,123a.44.44,0,0,1,.87-.12l8.8,65.11a.44.44,0,0,1-.38.49Z" transform="translate(-13.21 -9)"/><polygon class="cls-21" points="155.61 109.88 130.96 109.88 137.12 93.78 161.77 93.78 155.61 109.88"/><polygon class="cls-3" points="153.16 109.88 132.67 109.88 138.46 94.72 158.95 94.72 153.16 109.88"/><polygon class="cls-21" points="145.83 103.99 136.36 103.99 138.9 97.35 148.37 97.35 145.83 103.99"/><polygon class="cls-21" points="154.97 100.67 148.21 100.67 149.48 97.35 156.24 97.35 154.97 100.67"/><rect class="cls-21" x="109.4" y="109.88" width="46.2" height="2.93"/><rect class="cls-22" x="147.94" y="101.61" width="6.84" height="0.44"/><rect class="cls-22" x="147.39" y="103.14" width="6.84" height="0.44"/><rect class="cls-22" x="135.97" y="105.5" width="17.52" height="0.44"/><rect class="cls-22" x="135.16" y="107.58" width="17.52" height="0.44"/><polygon class="cls-2" points="158.11 109.88 154.78 109.88 160.94 93.78 164.27 93.78 158.11 109.88"/><rect class="cls-2" x="122.56" y="109.88" width="35.54" height="2.93"/><path class="cls-1" d="M245.52,18.68h-43a6.42,6.42,0,0,0-6.42,6.42V49.59A6.42,6.42,0,0,0,202.53,56h26.25l6.77,9.12a1.25,1.25,0,0,0,2.26-.75V56h7.72a6.42,6.42,0,0,0,6.42-6.42V25.1A6.42,6.42,0,0,0,245.52,18.68Z" transform="translate(-13.21 -9)"/><path class="cls-23" d="M205.29,47.78a1.11,1.11,0,0,1-.86-1.8L217,30.51,222.86,40l5.86-7.76,3.35,5.87,9.59-10.88a1.11,1.11,0,1,1,1.66,1.46l-11.64,13.2-3.22-5.64L222.67,44l-5.93-9.63-10.59,13A1.1,1.1,0,0,1,205.29,47.78Z" transform="translate(-13.21 -9)"/><path class="cls-23" d="M242.76,34.64a1.11,1.11,0,0,1-1.11-1.11V29.1h-4.44a1.11,1.11,0,1,1,0-2.21h6.65v6.65A1.11,1.11,0,0,1,242.76,34.64Z" transform="translate(-13.21 -9)"/></g></svg>