<svg xmlns="http://www.w3.org/2000/svg" viewBox="0 0 346 186.98"><defs><style>.cls-1{fill:#ebf0f3;}.cls-2{fill:#b7d0e3;}.cls-3{fill:#fff;}.cls-4{fill:#494f74;}.cls-5{fill:#0094f8;}.cls-6{fill:#c4d6d6;}.cls-10,.cls-7{fill:#002d41;}.cls-8{fill:#101017;}.cls-9{fill:#2f3451;}.cls-10{stroke:#002d41;}.cls-10,.cls-17,.cls-23{stroke-miterlimit:10;}.cls-11{fill:#252739;}.cls-12{fill:#3b4062;}.cls-13{fill:#00212d;}.cls-14{fill:#25273a;}.cls-15{fill:#eff7ff;}.cls-16{fill:#fab69a;}.cls-17{fill:#ff710f;stroke:#ff710f;}.cls-18{fill:#e25107;}.cls-19{fill:#ffd34b;}.cls-20{fill:#ef9c7b;}.cls-21{fill:#e1eaef;}.cls-22{fill:#c0cfd9;}.cls-23{fill:#0096b9;stroke:#0096b9;}</style></defs><title>illustrations 3</title><g id="Layer_2" data-name="Layer 2"><path class="cls-1" d="M105.69,20.23h34.9a5,5,0,0,1,5,5V44.37a5,5,0,0,1-5,5H118.77l-5.29,7.12a1,1,0,0,1-1.76-.58V49.39h-6a5,5,0,0,1-5-5V25.25A5,5,0,0,1,105.69,20.23Z" transform="translate(-2 -7)"/><circle class="cls-2" cx="121.14" cy="18.71" r="18.71"/><circle class="cls-3" cx="121.14" cy="18.71" r="16.59"/><rect class="cls-2" x="120.8" y="3.35" width="0.68" height="2.85"/><rect class="cls-2" x="115.61" y="12.28" width="0.68" height="1.96" transform="translate(6.92 52.79) rotate(-30.02)"/><rect class="cls-2" x="110.35" y="17.54" width="0.68" height="1.96" transform="translate(37.31 98.13) rotate(-60)"/><rect class="cls-2" x="108.87" y="24.28" width="0.68" height="2.85" transform="translate(81.5 127.92) rotate(-90)"/><rect class="cls-2" x="110.35" y="31.92" width="0.68" height="1.96" transform="translate(135.54 138.21) rotate(-120)"/><rect class="cls-2" x="115.61" y="37.18" width="0.68" height="1.96" transform="translate(195.28 122.2) rotate(-149.99)"/><rect class="cls-2" x="122.8" y="38.16" width="0.68" height="2.91" transform="translate(244.29 72.23) rotate(180)"/><rect class="cls-2" x="129.99" y="37.18" width="0.68" height="1.96" transform="translate(260.28 -0.99) rotate(149.99)"/><rect class="cls-2" x="135.25" y="31.92" width="0.68" height="1.96" transform="translate(229.92 -75.05) rotate(120.02)"/><rect class="cls-2" x="136.71" y="24.25" width="0.68" height="2.91" transform="translate(160.76 -118.34) rotate(90)"/><rect class="cls-2" x="135.25" y="17.54" width="0.68" height="1.96" transform="translate(81.79 -115.15) rotate(59.98)"/><rect class="cls-2" x="129.99" y="12.28" width="0.68" height="1.96" transform="translate(22.11 -70.42) rotate(30.02)"/><rect class="cls-4" x="118.1" y="14.47" width="1.22" height="13.79" transform="translate(215.74 -54.49) rotate(134.99)"/><rect class="cls-4" x="118.32" y="25.32" width="0.78" height="9.35" transform="translate(69.74 -90.08) rotate(53.27)"/><circle class="cls-5" cx="121.14" cy="18.94" r="2.26"/><circle class="cls-3" cx="121.14" cy="18.94" r="1.2"/><ellipse class="cls-1" cx="173" cy="182.56" rx="173" ry="4.42"/><polygon class="cls-2" points="197 103.63 200.18 103.63 191.29 80.51 188.11 80.51 197 103.63"/><rect class="cls-2" x="199.01" y="110.63" width="33.89" height="2.79" transform="translate(429.9 217.05) rotate(180)"/><path class="cls-6" d="M333.57,63.44c-1.6-.07-3,4.4-2.57,4.39s1.21.4,1.56.44a3.8,3.8,0,0,0,2.16-.44c.81-.44,4-4.22,2.38-4A11.91,11.91,0,0,1,333.57,63.44Z" transform="translate(-2 -7)"/><path class="cls-6" d="M339.74,62c.17-.26.34-.79-.16-.95s-1.39.85-2,1.51A4.18,4.18,0,0,1,335.38,64a25.13,25.13,0,0,1-2.46.52c-.43.08-.29.6.14.53l.51-.09c-.13.17,0,.39.27.4a6,6,0,0,0,4.33-1.21A11.56,11.56,0,0,0,339.74,62Z" transform="translate(-2 -7)"/><path class="cls-6" d="M340.41,66.34c.3-.17,1-.74.9-1-.38-.83-2.09.31-3,.68a4.55,4.55,0,0,1-2.69.37,21.74,21.74,0,0,1-2.33-.54c-.4-.11-.61.43-.21.54l.47.13c-.21.1-.62.73-.41.85a6.28,6.28,0,0,0,4.66.3A15.4,15.4,0,0,0,340.41,66.34Z" transform="translate(-2 -7)"/><path class="cls-6" d="M337.25,69.21c.35,0,1.11-.09,1.18-.42.23-.94-1.66-.76-2.6-.81a3.66,3.66,0,0,1-2.38-.84,15,15,0,0,1-1.49-1.5c-.24-.27-.76.12-.52.39l.29.32c-.23,0-1.21.17-1.12.36a5.28,5.28,0,0,0,3.73,2.52A15.43,15.43,0,0,0,337.25,69.21Z" transform="translate(-2 -7)"/><path class="cls-6" d="M340.78,64c.25-.22.78-.79.57-1-.49-.59-2,.58-2.75,1.1a4.53,4.53,0,0,1-2.57.87,24.4,24.4,0,0,1-2.47-.06c-.43,0-.48.53-.05.55l.51,0c-.18.14-.31.63-.07.7a6.34,6.34,0,0,0,4.63-.44A13.89,13.89,0,0,0,340.78,64Z" transform="translate(-2 -7)"/><path class="cls-6" d="M335.94,62.23c.58-.27.3-1-.32-.81a8.59,8.59,0,0,0-3.09,1.09,6.58,6.58,0,0,0-1.66,2.26c-.1.19.06.31.26.32a.27.27,0,0,0,.28.13c1.27-.14,1.92-.5,2.33-1.36A4,4,0,0,1,335.94,62.23Z" transform="translate(-2 -7)"/><path class="cls-6" d="M332.56,68.6l-3.73,5.87S324,72.11,325.28,72s5.5-7.27,6.18-8.22.87,1.6.87,1.6Z" transform="translate(-2 -7)"/><path class="cls-6" d="M333.05,66.65a.13.13,0,0,1,0-.26,1.91,1.91,0,0,0,1.41-2.14.13.13,0,0,1,.12-.14.13.13,0,0,1,.14.12,2.2,2.2,0,0,1-1.61,2.41Z" transform="translate(-2 -7)"/><path class="cls-6" d="M230.55,59.17c-1.55-.36,1.17,3.75,1.93,4.28a3.81,3.81,0,0,0,2.09.68c.35,0,1.25-.31,1.6-.26s-.47-4.53-2.07-4.64A11.93,11.93,0,0,1,230.55,59.17Z" transform="translate(-2 -7)"/><path class="cls-6" d="M228.13,57.1c-.14-.28-.25-.82.26-.92s1.28,1,1.79,1.72a4.19,4.19,0,0,0,2.07,1.64c.78.31,1.59.55,2.39.78.42.12.22.63-.2.51l-.5-.14c.11.18,0,.38-.31.37a6,6,0,0,1-4.17-1.68A11.53,11.53,0,0,1,228.13,57.1Z" transform="translate(-2 -7)"/><path class="cls-6" d="M227,61.35c-.28-.2-.94-.85-.78-1.12.47-.78,2,.54,2.88,1a4.55,4.55,0,0,0,2.63.67,22.1,22.1,0,0,0,2.37-.28c.41-.06.55.49.15.56l-.48.08c.2.13.53.79.32.89a6.28,6.28,0,0,1-4.66-.22A15.26,15.26,0,0,1,227,61.35Z" transform="translate(-2 -7)"/><path class="cls-6" d="M229.8,64.54c-.34-.06-1.09-.22-1.13-.54-.12-1,1.73-.57,2.67-.52a3.65,3.65,0,0,0,2.45-.58,15.2,15.2,0,0,0,1.64-1.33c.27-.24.75.21.47.45l-.32.29c.23,0,1.18.3,1.08.49a5.28,5.28,0,0,1-4,2.09A15.45,15.45,0,0,1,229.8,64.54Z" transform="translate(-2 -7)"/><path class="cls-6" d="M226.86,59c-.22-.25-.69-.87-.45-1.09.55-.54,1.9.8,2.61,1.4a4.54,4.54,0,0,0,2.46,1.15,24.36,24.36,0,0,0,2.46.21c.43,0,.42.57,0,.55l-.51,0c.16.16.24.66,0,.71a6.34,6.34,0,0,1-4.55-.95A13.84,13.84,0,0,1,226.86,59Z" transform="translate(-2 -7)"/><path class="cls-6" d="M231.88,57.75c-.54-.34-.2-1,.41-.77a8.61,8.61,0,0,1,2.95,1.42,6.57,6.57,0,0,1,1.4,2.43c.08.2-.1.3-.29.29a.27.27,0,0,1-.29.1c-1.25-.28-1.85-.71-2.16-1.6S232.61,58.21,231.88,57.75Z" transform="translate(-2 -7)"/><path class="cls-6" d="M234.54,64.45l3.06,6.25s5-1.81,3.8-2-4.66-7.83-5.24-8.85-1,1.5-1,1.5Z" transform="translate(-2 -7)"/><path class="cls-6" d="M234.27,62.47h0a2.2,2.2,0,0,1-1.34-2.58.13.13,0,0,1,.15-.11.13.13,0,0,1,.11.15,1.91,1.91,0,0,0,1.16,2.28.13.13,0,0,1,0,.26Z" transform="translate(-2 -7)"/><path class="cls-7" d="M269.51,89.22c-1.16.5-2.34,1-3.51,1.38-5.34,1.92-10.61,3-14.44,2.37a3.34,3.34,0,0,1-1.14-.39,5.15,5.15,0,0,1-.46-.27c-2.63-1.94-2.67-7.45,4.22-11.75l2.29-1.41c8.5-5.17,22.27-12.47,30.32-5.06C290.13,77.18,280.35,84.61,269.51,89.22Z" transform="translate(-2 -7)"/><path class="cls-7" d="M240,63.38c7.25,4.79,15,14.09,19.56,19.41,3.46,4-7.61,10.63-9.17,9.8s-15.39-10.28-20-20.76C230.46,71.83,238.61,62.44,240,63.38Z" transform="translate(-2 -7)"/><path class="cls-8" d="M272.39,74.7l-2.89,14.52c-1.16.5-2.34,1-3.51,1.38C268.27,80.11,272.39,74.7,272.39,74.7Z" transform="translate(-2 -7)"/><path class="cls-9" d="M228.63,185.44a7.09,7.09,0,0,0,2.42-3.19,0,0,0,0,0,0,0c.59-1.33,2.5-4.49,3.13-5.76-1.17-1.94-4.82-1.59-7.23-2.88a13,13,0,0,1-3.11,3.84,2.54,2.54,0,0,1-.49.24c-2.34.91-6.15-.45-8.31-.35a1.77,1.77,0,0,0-1.31.43C212.33,179.23,226.19,187.25,228.63,185.44Z" transform="translate(-2 -7)"/><path class="cls-10" d="M213.94,177.6a.57.57,0,0,0-.18.15c-1.55,1.56,12.59,9.82,14.94,8.06h0a2.11,2.11,0,0,0,.41-.29,8.57,8.57,0,0,0,1.93-3.27,0,0,0,0,0,0,0,12.74,12.74,0,0,1-7.68-4.57c-2.05.8-5.24-.14-7.44-.33A2.74,2.74,0,0,0,213.94,177.6Z" transform="translate(-2 -7)"/><path class="cls-11" d="M213.94,177.6a.57.57,0,0,0-.18.15c-1.55,1.56,12.59,9.82,14.94,8.06h0a2.11,2.11,0,0,0,.41-.29,14.75,14.75,0,0,1-5.63-1.53A31.56,31.56,0,0,1,213.94,177.6Z" transform="translate(-2 -7)"/><path class="cls-12" d="M255.91,138.68c.57-.13,22.22-1.63,29.77-4.13,6.12-2,15-3.74,15.56-10.38.9-10.35-2.59-14.68-9.78-15.89-3.82-.64-9.08-2.16-12.5-.77-4.85,2-37.57,12-38.78,21.91C239.11,138.23,249.12,140.24,255.91,138.68Z" transform="translate(-2 -7)"/><path class="cls-12" d="M241.25,126.86c-3.48,4.63-17.78,34.67-19.59,43.95,3.63,4.89,10.92,7.94,18.94,8.71.15.59,6.1-15.85,9.61-23.25,2.44-5.16,5.66-9.88,8.69-14.72,1-1.57,2-3.15,2.87-4.75C264.44,132.08,245.34,121.42,241.25,126.86Z" transform="translate(-2 -7)"/><path class="cls-13" d="M322.21,103.7s-14.27-3-26.36,5.14S280,137.07,280,137.07h0l38.56-24.8Z" transform="translate(-2 -7)"/><path class="cls-8" d="M269.09,115.71s-24.08,4.6-26,12.48,7.12,28.08,7.12,28.08l-2.55-25.92Z" transform="translate(-2 -7)"/><path class="cls-12" d="M244.55,130.79a7.9,7.9,0,0,0,.34,2.47c1.69,5.74,9.73,7,15.47,5.65l2.36-.21c1.44-.13,3.46-.3,5.76-.53,7.12-.7,17-1.85,21.66-3.38,6.12-2,15-3.74,15.56-10.38.41-4.61-.07-8-1.36-10.51-1.59-3.08-4.43-4.7-8.42-5.38-3.82-.64-7.47,1.3-10.9,2.69-4.85,2-39.18,8.57-40.39,18.45a.12.12,0,0,1,0,.06C244.58,130.09,244.56,130.46,244.55,130.79Z" transform="translate(-2 -7)"/><path class="cls-12" d="M244.54,130.58c0,.07,0,.14,0,.21a24,24,0,0,0,.34,2.47c1.63,9.7,8.58,36.23,12.62,43.64,4.79-2.62,12.78-3.7,20.13-5.39.05,0,0-.09,0-.38-.62-2.47-5.59-16.52-7.4-23.65a82.81,82.81,0,0,1-1.74-9.32c-.34-2.46-.62-4.94-1-7.41,0-.05,0-.1,0-.15-.23-1.83-.5-3.67-.82-5.49-.91-5.1-20.66-1.67-22.06,4.6A3,3,0,0,0,244.54,130.58Z" transform="translate(-2 -7)"/><path class="cls-14" d="M266.69,173.76a.18.18,0,0,1-.18-.13c-.1-.33-10-32.86-10.74-39.24a4.41,4.41,0,0,1,.83-3.46c1.9-2.33,6.75-2.74,14.1-3.38,2.07-.18,4.42-.38,6.92-.65,13.9-1.49,18.65-13.74,18.7-13.86a.18.18,0,0,1,.34.13c0,.13-4.87,12.58-19,14.1-2.5.27-4.85.47-6.93.65-7.25.63-12,1-13.84,3.25a4.07,4.07,0,0,0-.75,3.18c.72,6.35,10.62,38.85,10.72,39.17a.18.18,0,0,1-.12.23Z" transform="translate(-2 -7)"/><path class="cls-9" d="M261.77,134.65c.17.75.51,2.17.95,4,2.15,9.26,6.77,29.54,6.19,34.31,0,0,7.64-1.65,8.74-1.49l0-.38c-.62-2.47-5.59-16.52-7.4-23.65a82.81,82.81,0,0,1-1.74-9.32c7.12-.7,17-1.85,21.66-3.38,6.12-2,15-3.74,15.56-10.38.41-4.61-.07-8-1.36-10.51l-3-1.86s-7.09,14-19.71,16.58c-5.78,1.17-10.66,1.6-14.15,2.15C263.4,131.41,261.22,132.24,261.77,134.65Z" transform="translate(-2 -7)"/><path class="cls-7" d="M306.6,113S302,77.25,291.41,71.12c-6.82-3.94-17.33-.47-19.68,4.7-4.58,10.1-7.25,37.09-7.25,37.09S289,118,306.6,113Z" transform="translate(-2 -7)"/><path class="cls-6" d="M279.63,64.8s.12,4,.26,5A3.46,3.46,0,0,0,281,71.22c1.7-1.22,3.1-.93,3.64-1.47a15.25,15.25,0,0,1-.63-5C284,62.76,279.63,64.8,279.63,64.8Z" transform="translate(-2 -7)"/><path class="cls-6" d="M284.55,61.52s-.95,5.5-4.42,5.61-1.3-7.48-.78-7.69S283.26,58.48,284.55,61.52Z" transform="translate(-2 -7)"/><polygon class="cls-15" points="278.99 64.22 279.71 61.79 282.41 62.07 284.69 62.54 278.99 64.22"/><polygon class="cls-15" points="278.99 64.22 278.08 61.79 276.96 63.16 278.99 64.22"/><rect class="cls-11" x="314.85" y="132.58" width="1.02" height="57.13" transform="translate(-25.64 51.68) rotate(-10.25)"/><rect class="cls-11" x="253.1" y="160.64" width="57.13" height="1.02" transform="translate(71.02 402.68) rotate(-79.76)"/><rect class="cls-11" x="262.04" y="160.64" width="57.13" height="1.02" transform="translate(78.37 411.49) rotate(-79.76)"/><path class="cls-7" d="M322.21,103.7s-23.9,13.87-42.16,33.37c0,0,21.87,4.06,32.69-5.19S322.21,103.7,322.21,103.7Z" transform="translate(-2 -7)"/><rect class="cls-11" x="280.67" y="147.31" width="31.54" height="1.02"/><path class="cls-8" d="M277.81,58.85c.78,2.67,3,2,5.21,1.58a5.12,5.12,0,0,0,.13,2,.52.52,0,0,0-.07.19c-.13.83-.21,1.66-.26,2.5a.51.51,0,0,0,.57.57c2.64-.41,3.59-3.63,3.05-6a2.82,2.82,0,0,0-1.84-2.13,17.77,17.77,0,0,0-3.44-.43C279.65,56.9,277.07,56.31,277.81,58.85Z" transform="translate(-2 -7)"/><path class="cls-6" d="M282.76,62.52a1.59,1.59,0,0,1,1.49-.87c1,.14,1.18,2.43-.44,2.63S282.76,62.52,282.76,62.52Z" transform="translate(-2 -7)"/><path class="cls-8" d="M277.65,171.52c0-.92-19.9,3.92-20.14,5.38C257.19,178.89,277.6,174.21,277.65,171.52Z" transform="translate(-2 -7)"/><path class="cls-9" d="M276,180.2a7.09,7.09,0,0,0-1.49-3.72,0,0,0,0,0,0,0c-.83-1.19-1.54-2.13-2.31-3.32a15,15,0,0,0-7.21,2.39,13,13,0,0,1,1.69,4.64,2.54,2.54,0,0,1,0,.54c-.42,2.47-3.55,5-4.58,7a1.77,1.77,0,0,0-.31,1.35C262.34,191,276.35,183.21,276,180.2Z" transform="translate(-2 -7)"/><path class="cls-10" d="M261.77,188.76a.56.56,0,0,0,0,.23c.54,2.13,14.9-5.75,14.6-8.66h0a2.07,2.07,0,0,0,0-.5,8.57,8.57,0,0,0-1.81-3.34,0,0,0,0,0,0,0,12.74,12.74,0,0,1-7.87,4.24c-.37,2.17-2.81,4.42-4.11,6.21A2.74,2.74,0,0,0,261.77,188.76Z" transform="translate(-2 -7)"/><path class="cls-11" d="M261.77,188.76a.56.56,0,0,0,0,.23c.54,2.13,14.9-5.75,14.6-8.66h0a2.07,2.07,0,0,0,0-.5,14.71,14.71,0,0,1-4.2,4A31.57,31.57,0,0,1,261.77,188.76Z" transform="translate(-2 -7)"/><path class="cls-8" d="M286.69,77c.76,6.54,17.61,23,17.61,23a73,73,0,0,0-1.9-8.22C299.34,83.13,290.09,72.84,286.69,77Z" transform="translate(-2 -7)"/><path class="cls-7" d="M286.78,74.09c6.62-9.28,24.55,5.77,31.88,11.89s-1.32,15.08-4.12,14.76S282.56,80,286.78,74.09Z" transform="translate(-2 -7)"/><path class="cls-7" d="M326.4,67.82c-7.13,5-18,18.3-19.93,23.25s7.85,10.45,9.39,9.59,17.23-13.53,21.56-24.11C337.42,76.54,327.79,66.85,326.4,67.82Z" transform="translate(-2 -7)"/><path class="cls-7" d="M49.23,104.43s14.27-3,26.36,5.14,15.8,28.23,15.8,28.23h0L52.83,113Z" transform="translate(-2 -7)"/><path class="cls-14" d="M97.18,74.6a10.69,10.69,0,0,1-5.61-6.83h0c.24-1.15.76-2.86-.27-3.56-.81-.56-.8-1.08-1.51-.63-2.28,1.47-3,5.16-3.4,7.81-.22,1.6-.19,6.08.5,6.6,1.21.92,8.77-1.38,10.28-2.51A.51.51,0,0,0,97.18,74.6Z" transform="translate(-2 -7)"/><path class="cls-12" d="M117.64,127.74c-.09,1.85-.11,3.7-.1,5.55,0,.05,0,.1,0,.15,0,2.49,0,5,0,7.47a82.58,82.58,0,0,1-.51,9.47c-.86,7.31-4,21.88-4.26,24.41,0,.29,0,.42,0,.38,7.52.71,15.58.74,20.66,2.72,3-7.87,8.83-35.87,6.34-45.38C139.17,130.06,117.88,122.56,117.64,127.74Z" transform="translate(-2 -7)"/><path class="cls-8" d="M112.81,175.17c-.13-.91,20.24,1.3,20.67,2.72C134,179.81,113.2,177.83,112.81,175.17Z" transform="translate(-2 -7)"/><path class="cls-16" d="M119.24,175.26c-.42,2.62-1.45,7.89-1.5,8.45,0,0,0,0,0,0a7.12,7.12,0,0,0,.61,3.93c1.63-2.58,3.47-2.86,6.79-2.14,3.12.67,9.27,2.21,8.76,1.93-1.85-1.12-5.6-2.19-7.21-4.09a2.35,2.35,0,0,1-.32-.45c-.2-.34-.26-1.73.34-6.71A39.73,39.73,0,0,0,119.24,175.26Z" transform="translate(-2 -7)"/><path class="cls-12" d="M118.71,188.77a.5.5,0,0,0,.29.22c.92,0,1.13-2.6,1.72-2.4,7.85,2.72,14.13,3,14.74,2.48a.49.49,0,0,0,.18-.42c-.07-.76-1.62-1.79-2.27-2a60.74,60.74,0,0,1-6.7-3.25,12.74,12.74,0,0,1-8.94.37,0,0,0,0,0,0,0A7.59,7.59,0,0,0,118.71,188.77Z" transform="translate(-2 -7)"/><path class="cls-16" d="M126.08,182.34c1.57,2.08,5.32,3.41,5.32,3.41s-2.8,1.18-13.67-2C117.74,183.72,124.73,180.56,126.08,182.34Z" transform="translate(-2 -7)"/><path class="cls-11" d="M119,189c.92,0,1.13-2.6,1.72-2.4,7.85,2.72,14.13,3,14.74,2.48a.49.49,0,0,0,.18-.42c-4.27.58-8-.83-12-2-3-.85-3.25-1.56-4.38,1.54C119.15,188.34,118.92,189,119,189Z" transform="translate(-2 -7)"/><path class="cls-9" d="M140.07,133.66c-1.2-9.88-33.93-19.93-38.78-21.91-3.43-1.39-8.68.12-12.5.76-7.19,1.21-10.68,5.54-9.78,15.89.59,6.64,9.44,8.35,15.56,10.38,7.55,2.5,29.2,4,29.77,4.13C131.13,144.47,141.14,142.46,140.07,133.66Z" transform="translate(-2 -7)"/><path class="cls-8" d="M111.16,119.95s24.08,4.6,26,12.48S119,173.72,119,173.72l13.54-39.14Z" transform="translate(-2 -7)"/><path class="cls-12" d="M135.63,134a.13.13,0,0,1,0-.06c-1.21-9.88-35.54-16.47-40.39-18.45-3.43-1.39-7.07-3.33-10.9-2.69-4,.67-6.83,2.3-8.42,5.38-1.29,2.48-1.77,5.89-1.36,10.51C75.14,135.28,84,137,90.12,139c4.62,1.53,14.53,2.68,21.66,3.38,2.31.22,4.32.4,5.76.53s2.25.19,2.36.21c5.74,1.32,13.78.09,15.47-5.65a7.87,7.87,0,0,0,.34-2.47C135.69,134.69,135.67,134.32,135.63,134Z" transform="translate(-2 -7)"/><path class="cls-12" d="M135.69,135.48c-.35-6.41-19.27-13-21-8.15-.62,1.74-1.18,3.51-1.71,5.28,0,0,0,.1,0,.15-.73,2.38-1.42,4.78-2.15,7.15a82.66,82.66,0,0,1-3.24,8.91c-3,6.74-10.15,19.79-11.16,22.12-.11.27-.15.4-.09.37,7,2.87,14.69,5.24,19,8.61,5.2-6.65,16.4-31.69,19.59-41a23.93,23.93,0,0,0,.73-2.38c0-.07,0-.14,0-.21A3,3,0,0,0,135.69,135.48Z" transform="translate(-2 -7)"/><path class="cls-9" d="M118.48,138.89c-.17.75-.51,2.17-.94,4-2.15,9.26-11.77,27.18-11.19,32,0,0-9-3.73-10.06-3.58,0,0,6-11.85,10-19.8a32,32,0,0,0,3.39-9.31c-7.12-.7-15-1.64-19.58-3.17-6.12-2-15-3.74-15.56-10.38-.41-4.61.07-8,1.36-10.51l3-1.86s7.09,14,19.71,16.58c5.78,1.17,10.66,1.6,14.15,2.14C116.85,135.65,119,136.47,118.48,138.89Z" transform="translate(-2 -7)"/><path class="cls-8" d="M96.28,171.32c.13-.91,19,7.12,19,8.6C115.25,181.93,95.88,174,96.28,171.32Z" transform="translate(-2 -7)"/><path class="cls-16" d="M128.39,58.39s0-.07,0-.11c.1-.56-.94-.78-1-.22,0,0,0,.07,0,.11a.55.55,0,0,0-.94.15,8.85,8.85,0,0,1-3,3.2,5.93,5.93,0,0,1,.81-1.53c.37-.43-.27-1-.64-.6a8.82,8.82,0,0,0-.56.74,17.23,17.23,0,0,0-2.72,7.42,11.33,11.33,0,0,0-.21,1.26.43.43,0,0,0,.23.38,13.35,13.35,0,0,0,2.9,1,.44.44,0,0,0,.21,0,.44.44,0,0,0,.86-.13,34.68,34.68,0,0,1,.3-4,21,21,0,0,0,4.84-5.51c.24-.44-.41-.92-.73-.65h0v0a6.37,6.37,0,0,0,.41-1C129.22,58.54,128.68,58.28,128.39,58.39Z" transform="translate(-2 -7)"/><path class="cls-16" d="M124.33,62.26a.13.13,0,0,1-.1-.05.13.13,0,0,1,0-.18,11.67,11.67,0,0,0,3-3.92.13.13,0,0,1,.17-.06.13.13,0,0,1,.06.17,11.68,11.68,0,0,1-3.05,4A.12.12,0,0,1,124.33,62.26Z" transform="translate(-2 -7)"/><path class="cls-16" d="M125.23,63a.13.13,0,0,1-.07-.23c1.55-1,3.1-4.39,3.11-4.43a.13.13,0,0,1,.23.11c-.06.14-1.6,3.44-3.2,4.53Z" transform="translate(-2 -7)"/><path class="cls-16" d="M126,63.52a.13.13,0,0,1-.1,0,.13.13,0,0,1,0-.18,17.16,17.16,0,0,0,2.65-3.44.13.13,0,0,1,.17,0,.13.13,0,0,1,0,.17,17,17,0,0,1-2.71,3.51A.13.13,0,0,1,126,63.52Z" transform="translate(-2 -7)"/><path class="cls-17" d="M83.08,77.23c1.07-3.37,20.21,2.49,33.56,2.86,9.54.27,4.11,15.45,1.3,15.69S80.89,84.15,83.08,77.23Z" transform="translate(-2 -7)"/><path class="cls-17" d="M119.08,64.83c-4.4,7.25-5.87,16.74-7.54,21.77s5.53,9.77,7,8.83,11.39-13.35,13.1-22C131.68,73.42,120,63.38,119.08,64.83Z" transform="translate(-2 -7)"/><path class="cls-18" d="M83.08,77.23s30.09,13.11,34.61,12.26,14-16.06,14-16.06-1,5.1-6,13.46c-4.51,7.53-6.77,9.18-7.76,8.9C97.93,90.11,93.89,89.33,83.08,77.23Z" transform="translate(-2 -7)"/><path class="cls-17" d="M67.64,120s4.64-39.46,13.5-43.25c7.24-3.09,14-1,15.34,6.63,1.24,7,3.56,16.2,5,19.84s5.84,10.47,5.84,10.47S85.67,123.51,67.64,120Z" transform="translate(-2 -7)"/><path class="cls-16" d="M91.84,71.3s-1,3.76-1.05,4.67a3.45,3.45,0,0,1-1,1.54c-1.78-1.1-3.16-.72-3.73-1.22a25.71,25.71,0,0,0,1.42-4.7C87.76,69.57,91.84,71.3,91.84,71.3Z" transform="translate(-2 -7)"/><path class="cls-16" d="M85.81,68.34s2,5.19,5.46,4.6-.24-7.59-.79-7.69S86.46,65.1,85.81,68.34Z" transform="translate(-2 -7)"/><path class="cls-14" d="M88.36,63.5l-.08.05c-2.62-.44-4.34,2.57-3.63,5.14.27,1,1.49,2.61,2.59,1.54.55-.54.57-1.69.65-2.39a7.84,7.84,0,0,0,0-1.06,3.56,3.56,0,0,0,.62.05,38.26,38.26,0,0,0,4.41.38.52.52,0,0,0,.51-.51C93.54,64.27,90.46,62.67,88.36,63.5Z" transform="translate(-2 -7)"/><polygon class="cls-19" points="87.8 70.51 86.91 68.13 84.41 68.3 81.96 68.78 87.8 70.51"/><polygon class="cls-19" points="87.8 70.51 88.53 68.02 89.59 69.49 87.8 70.51"/><path class="cls-17" d="M82.08,79.21s7.76,11.49,9.55,22.9S101.49,116,101.49,116,85.41,123.18,67.64,120C67.64,120,72.31,87.21,82.08,79.21Z" transform="translate(-2 -7)"/><path class="cls-16" d="M96.86,124.73a10.39,10.39,0,0,0-2.3-3.75s0-.06,0-.09a8.34,8.34,0,0,1,2.56,2.28c.39.53,1.15-.15.76-.67a10.47,10.47,0,0,0-5.26-3.77,23.25,23.25,0,0,1-8.55-5.24.5.5,0,0,0-.2-.13.51.51,0,0,0-.61,0l-3.83,2.8a.51.51,0,0,0,.06.81,64.51,64.51,0,0,0,7.7,4.19,11.11,11.11,0,0,0,2.21.74,8.61,8.61,0,0,1,2.85.8,5.83,5.83,0,0,1,1.88,2.75.5.5,0,0,0,.94-.15v0a.49.49,0,0,0,.91-.06C96.27,125.73,97.06,125.3,96.86,124.73Z" transform="translate(-2 -7)"/><path class="cls-16" d="M95.71,122.55a.13.13,0,0,1-.12-.08,9.2,9.2,0,0,0-1.14-1.42.13.13,0,0,1,.19-.17,9.73,9.73,0,0,1,1.19,1.49.13.13,0,0,1-.07.17Z" transform="translate(-2 -7)"/><path class="cls-16" d="M96,125.38a.13.13,0,0,1-.12-.09,11.22,11.22,0,0,0-2.3-3.77.13.13,0,0,1,.18-.18,11.49,11.49,0,0,1,2.36,3.87.13.13,0,0,1-.08.16Z" transform="translate(-2 -7)"/><path class="cls-16" d="M95.07,125.43a.13.13,0,0,1-.12-.08,9.08,9.08,0,0,0-2-3.1.13.13,0,1,1,.16-.2,9.13,9.13,0,0,1,2.1,3.2.13.13,0,0,1-.07.16Z" transform="translate(-2 -7)"/><path class="cls-20" d="M81.33,79.68c3.28,1.32.63,21.82-4.56,29.83s-16.58,6.32-16.6,3.5S74.59,77,81.33,79.68Z" transform="translate(-2 -7)"/><path class="cls-20" d="M90.93,116.53c-6.89-4.94-16.24-7.14-21.13-9.19s-10.16,4.77-9.35,6.34,12.44,12.38,20.95,14.75C81.4,128.43,92.31,117.52,90.93,116.53Z" transform="translate(-2 -7)"/><path class="cls-18" d="M70.57,90.08S65,106.38,65.48,111,81.4,128.43,81.4,128.43s-5-1.35-13-7C61.28,116.36,60,114,60.16,113S62.71,103,70.57,90.08Z" transform="translate(-2 -7)"/><path class="cls-16" d="M101.72,173a47.17,47.17,0,0,1-2.47,4.63s0,0,0,0a7.13,7.13,0,0,0-1.45,3.7c2.71-1.41,4.44-.74,6.95,1.55s6.91,6.56,6.61,6.07c-1-1.9-3.74-4.7-4.18-7.16a2.36,2.36,0,0,1-.05-.55,31.7,31.7,0,0,1,1.81-5.15C108.6,175.92,104,173.81,101.72,173Z" transform="translate(-2 -7)"/><path class="cls-12" d="M97.56,182.5a.51.51,0,0,0,.14.34c.78.49,2.29-1.68,2.69-1.21,5.42,6.29,10.7,9.71,11.5,9.54a.49.49,0,0,0,.37-.28c.32-.69-.5-2.36-.94-2.91a60.58,60.58,0,0,1-4.16-6.18,12.74,12.74,0,0,1-7.91-4.17,0,0,0,0,0,0,0A7.6,7.6,0,0,0,97.56,182.5Z" transform="translate(-2 -7)"/><path class="cls-16" d="M107.16,180.64c.32,2.59,2.89,5.62,2.89,5.62s-3-.39-10.8-8.62C99.25,177.65,106.89,178.42,107.16,180.64Z" transform="translate(-2 -7)"/><path class="cls-11" d="M97.7,182.84c.78.49,2.29-1.68,2.69-1.21,5.42,6.29,10.7,9.71,11.5,9.54a.49.49,0,0,0,.37-.28c-4-1.64-6.54-4.76-9.43-7.74-2.2-2.27-2-3-4.56-.87C98.15,182.35,97.64,182.79,97.7,182.84Z" transform="translate(-2 -7)"/><path class="cls-14" d="M91.25,76.18a10.68,10.68,0,0,1-3.74-8h0c.52-1.05,1.44-2.59.63-3.52-.65-.74-.51-1.25-1.31-1-2.58.86-4.23,4.25-5.23,6.72-.61,1.49-1.69,5.84-1.15,6.52.94,1.19,8.83.84,10.58.13A.52.52,0,0,0,91.25,76.18Z" transform="translate(-2 -7)"/><path class="cls-16" d="M87.77,69a1.59,1.59,0,0,0-1.63-.55c-.91.34-.67,2.62,1,2.49S87.77,69,87.77,69Z" transform="translate(-2 -7)"/><path class="cls-19" d="M87.45,70.43c-.19-.13-.42.14-.24.27s.73.89.26,1.14-1.2-.25-.85-.74c.13-.19-.14-.43-.27-.24-.52.73.29,1.53,1.07,1.38C88.38,72,88,70.85,87.45,70.43Z" transform="translate(-2 -7)"/><rect class="cls-11" x="27.51" y="161.37" width="57.13" height="1.02" transform="translate(-115.19 181.29) rotate(-79.76)"/><rect class="cls-11" x="89.26" y="133.32" width="1.02" height="57.13" transform="translate(-29.37 11.55) rotate(-10.25)"/><rect class="cls-11" x="80.32" y="133.32" width="1.02" height="57.13" transform="translate(-29.51 9.96) rotate(-10.25)"/><path class="cls-17" d="M49.23,104.43S72.78,119.8,91,139.3c0,0-21.53,2.56-32.35-6.69S49.23,104.43,49.23,104.43Z" transform="translate(-2 -7)"/><rect class="cls-11" x="55.22" y="148.04" width="31.54" height="1.02"/><rect class="cls-11" x="101.47" y="106.42" width="143.65" height="2.71"/><path class="cls-14" d="M103.64,190.5h-.07a.51.51,0,0,1-.44-.57l10.16-75.21a.51.51,0,0,1,1,.14l-10.16,75.21A.51.51,0,0,1,103.64,190.5Z" transform="translate(-2 -7)"/><path class="cls-14" d="M147.5,190.5a.51.51,0,0,1-.5-.44l-10.16-75.21a.51.51,0,0,1,1-.14L148,189.92a.51.51,0,0,1-.44.57Z" transform="translate(-2 -7)"/><path class="cls-14" d="M196.6,190.5h-.07a.51.51,0,0,1-.44-.57l10.16-75.21a.5.5,0,0,1,.57-.43.51.51,0,0,1,.44.57L197.1,190.06A.51.51,0,0,1,196.6,190.5Z" transform="translate(-2 -7)"/><path class="cls-14" d="M240.45,190.5a.51.51,0,0,1-.5-.44l-10.16-75.21a.51.51,0,0,1,1-.14L241,189.92a.51.51,0,0,1-.44.57Z" transform="translate(-2 -7)"/><polygon class="cls-21" points="162.23 103.04 133.76 103.04 140.87 84.44 169.35 84.44 162.23 103.04"/><polygon class="cls-3" points="159.4 103.04 135.74 103.04 142.42 85.52 166.09 85.52 159.4 103.04"/><polygon class="cls-21" points="150.94 96.24 140 96.24 142.93 88.56 153.87 88.56 150.94 96.24"/><polygon class="cls-21" points="161.5 92.4 153.69 92.4 155.15 88.56 162.96 88.56 161.5 92.4"/><rect class="cls-21" x="108.86" y="103.04" width="53.37" height="3.38"/><rect class="cls-22" x="153.37" y="93.48" width="7.9" height="0.51"/><rect class="cls-22" x="152.73" y="95.24" width="7.9" height="0.51"/><rect class="cls-22" x="139.54" y="97.97" width="20.24" height="0.51"/><rect class="cls-22" x="138.61" y="100.38" width="20.24" height="0.51"/><polygon class="cls-2" points="165.12 103.04 161.27 103.04 168.39 84.44 172.24 84.44 165.12 103.04"/><rect class="cls-2" x="124.06" y="103.04" width="41.06" height="3.38"/><path class="cls-1" d="M247,7H209a5.68,5.68,0,0,0-5.68,5.68V34.33A5.68,5.68,0,0,0,209,40h23.21l6,8.06a1.11,1.11,0,0,0,2-.66V40H247a5.68,5.68,0,0,0,5.68-5.68V12.68A5.68,5.68,0,0,0,247,7Z" transform="translate(-2 -7)"/><path class="cls-23" d="M211.44,32.73a1,1,0,0,1-.76-1.59l11.11-13.68L227,25.89,232.16,19l3,5.19,8.48-9.62a1,1,0,1,1,1.47,1.29L234.79,27.56l-2.85-5-5.12,6.78-5.24-8.52L212.2,32.37A1,1,0,0,1,211.44,32.73Z" transform="translate(-2 -7)"/><path class="cls-23" d="M244.58,21.12a1,1,0,0,1-1-1V16.21h-3.93a1,1,0,1,1,0-2h5.88v5.88A1,1,0,0,1,244.58,21.12Z" transform="translate(-2 -7)"/></g></svg>