<svg id="Layer_1" data-name="Layer 1" xmlns="http://www.w3.org/2000/svg" viewBox="0 0 344.24 171.21"><defs><style>.cls-1{fill:#fab69a;}.cls-13,.cls-2{fill:#002d41;}.cls-3{fill:#ebf0f3;}.cls-4{fill:#25273a;}.cls-5{fill:#e1eaef;}.cls-6{fill:#b7d0e3;}.cls-7{fill:#fff;}.cls-8{fill:#0096b9;}.cls-9{fill:#0093f8;}.cls-10,.cls-18{fill:#ff710f;}.cls-11{fill:#70ceff;}.cls-12{fill:#c4d6d6;}.cls-13{stroke:#002d41;}.cls-13,.cls-18{stroke-miterlimit:10;}.cls-14{fill:#252739;}.cls-15{fill:#3b4062;}.cls-16{fill:#2f3451;}.cls-17{fill:#101017;}.cls-18{stroke:#ff710f;}.cls-19{fill:#ffd34b;}.cls-20{fill:#ff3c74;}.cls-21{fill:#0083e5;}.cls-22{fill:#cee0ea;}.cls-23{fill:#eff7ff;}.cls-24{fill:#b0d1d3;}</style></defs><title>illustration1</title><path class="cls-1" d="M36.72,150.93l-3.16,3.6c-2,2.24-3.67,4.14-4.08,4.45,0,0,0,0,0,0a6.57,6.57,0,0,0-2.29,2.86c2.77-.5,4.1.57,5.68,3.27,1.48,2.54,4.27,7.67,4.14,7.15-.39-2-2-5.16-1.71-7.44a2.22,2.22,0,0,1,.1-.5,29.59,29.59,0,0,1,3-3.77c1.06-1.21,2.28-2.56,3.43-3.84l-.68-.81C39.72,154.22,38.19,152.5,36.72,150.93Z" transform="translate(-2.76 -15.42)"/><path class="cls-2" d="M26.66,162.79a.46.46,0,0,0,0,.34c.55.64,2.47-.85,2.7-.32,3,7,6.74,11.47,7.49,11.54a.45.45,0,0,0,.4-.14c.48-.52.21-2.21,0-2.81a56,56,0,0,1-2-6.57A11.74,11.74,0,0,1,29.47,159a0,0,0,0,0,0,0A7,7,0,0,0,26.66,162.79Z" transform="translate(-2.76 -15.42)"/><path class="cls-1" d="M35.6,163.79c-.43,2.36,1,5.74,1,5.74s-2.54-1.17-7.13-10.54C29.47,159,36,161.77,35.6,163.79Z" transform="translate(-2.76 -15.42)"/><path class="cls-2" d="M26.68,163.13c.55.64,2.47-.85,2.7-.32,3,7,6.74,11.47,7.49,11.54a.45.45,0,0,0,.4-.14c-3-2.54-4.44-6-6.17-9.39-1.31-2.59-1-3.17-3.77-2C27.22,162.82,26.64,163.07,26.68,163.13Z" transform="translate(-2.76 -15.42)"/><ellipse class="cls-3" cx="172.12" cy="166.81" rx="172.12" ry="4.39"/><path class="cls-4" d="M121.32,32.47a.4.4,0,0,1-.13-.78l47.2-16.27,46.94,16.27a.4.4,0,0,1-.26.76L168.39,16.27,121.45,32.45Z" transform="translate(-2.76 -15.42)"/><rect class="cls-3" x="121.32" y="32.07" width="93.88" height="59.92" transform="translate(333.76 108.65) rotate(180)"/><rect class="cls-5" x="118.6" y="89.16" width="99.32" height="2.83" transform="translate(333.76 165.73) rotate(180)"/><rect class="cls-5" x="118.6" y="30.65" width="99.32" height="2.83" transform="translate(333.76 48.73) rotate(180)"/><rect class="cls-6" x="125.32" y="23.04" width="4.41" height="0.81"/><rect class="cls-6" x="132.16" y="23.04" width="13.94" height="0.81"/><rect class="cls-6" x="150.12" y="23.04" width="10.92" height="0.81"/><rect class="cls-6" x="167.03" y="23.04" width="21.1" height="0.81"/><rect class="cls-6" x="191.97" y="23.04" width="8.54" height="0.81"/><rect class="cls-6" x="125.32" y="27" width="15.26" height="0.81"/><rect class="cls-6" x="143.4" y="27" width="19.27" height="0.81"/><rect class="cls-6" x="167.68" y="27" width="17.75" height="0.81"/><rect class="cls-6" x="188.77" y="27" width="11.74" height="0.81"/><rect class="cls-7" x="125.06" y="33.05" width="80.87" height="36.72"/><path class="cls-8" d="M149.84,51.79V66.7l-13.21,6.94a14.92,14.92,0,0,1,13.21-21.86Z" transform="translate(-2.76 -15.42)"/><path class="cls-9" d="M164.14,70.92a14.93,14.93,0,0,1-23.74,7.34l9.43-11.56Z" transform="translate(-2.76 -15.42)"/><path class="cls-10" d="M161.92,58,149.84,66.7V51.79A14.84,14.84,0,0,1,161.92,58Z" transform="translate(-2.76 -15.42)"/><path class="cls-2" d="M164.75,66.7a15,15,0,0,1-.61,4.22l-14.3-4.22L161.92,58A14.74,14.74,0,0,1,164.75,66.7Z" transform="translate(-2.76 -15.42)"/><path class="cls-11" d="M149.84,66.7l-9.43,11.56a15.24,15.24,0,0,1-3.77-4.61Z" transform="translate(-2.76 -15.42)"/><rect class="cls-10" x="167.68" y="37.77" width="11.07" height="3.65"/><rect class="cls-2" x="167.68" y="43.81" width="11.07" height="3.65"/><rect class="cls-9" x="167.68" y="49.86" width="11.07" height="3.65"/><rect class="cls-11" x="167.68" y="55.9" width="11.07" height="3.65"/><rect class="cls-8" x="167.68" y="61.95" width="11.07" height="3.65"/><rect class="cls-6" x="182.14" y="37.77" width="2.43" height="0.55"/><rect class="cls-6" x="185.91" y="37.77" width="7.67" height="0.55"/><rect class="cls-6" x="195.79" y="37.77" width="6.01" height="0.55"/><rect class="cls-6" x="182.14" y="41.15" width="8.4" height="0.55"/><rect class="cls-6" x="192.09" y="41.15" width="9.7" height="0.55"/><rect class="cls-6" x="182.14" y="43.54" width="2.43" height="0.55"/><rect class="cls-6" x="185.91" y="43.54" width="7.67" height="0.55"/><rect class="cls-6" x="195.79" y="43.54" width="6.01" height="0.55"/><rect class="cls-6" x="182.14" y="46.91" width="8.4" height="0.55"/><rect class="cls-6" x="192.09" y="46.91" width="9.7" height="0.55"/><rect class="cls-6" x="182.14" y="49.72" width="2.43" height="0.55"/><rect class="cls-6" x="185.91" y="49.72" width="7.67" height="0.55"/><rect class="cls-6" x="195.79" y="49.72" width="6.01" height="0.55"/><rect class="cls-6" x="182.14" y="53.1" width="8.4" height="0.55"/><rect class="cls-6" x="192.09" y="53.1" width="9.7" height="0.55"/><rect class="cls-6" x="182.14" y="55.77" width="2.43" height="0.55"/><rect class="cls-6" x="185.91" y="55.77" width="7.67" height="0.55"/><rect class="cls-6" x="195.79" y="55.77" width="6.01" height="0.55"/><rect class="cls-6" x="182.14" y="59.14" width="8.4" height="0.55"/><rect class="cls-6" x="192.09" y="59.14" width="9.7" height="0.55"/><rect class="cls-6" x="182.26" y="61.67" width="2.43" height="0.55"/><rect class="cls-6" x="186.03" y="61.67" width="7.67" height="0.55"/><rect class="cls-6" x="195.91" y="61.67" width="6.01" height="0.55"/><rect class="cls-6" x="182.26" y="65.04" width="8.4" height="0.55"/><rect class="cls-6" x="192.21" y="65.04" width="9.7" height="0.55"/><path class="cls-12" d="M315,65.24l.11-.07c.52-.39-.15-1.38-.67-1l-.12.06a.61.61,0,0,0-.88-.6,9.83,9.83,0,0,1-4.88.39,6.77,6.77,0,0,1,1.85-.67c.63-.07.59-1.08,0-1a9.71,9.71,0,0,0-1,.19c-2.87.62-4.17.92-6.37,2.91-1.55,1.4-2.77,5.56-3.14,5.89-.13.12,4.31,2.09,4.71,1.64,1.07-1.2,1.38-4.21,1.41-4.22a23.28,23.28,0,0,0,8.2-.88c.54-.19.39-1.09-.08-1.11h0a7.2,7.2,0,0,0,1.08-.49C315.57,66,315.34,65.38,315,65.24Z" transform="translate(-2.76 -15.42)"/><path class="cls-4" d="M310.14,65.32a8,8,0,0,1-.82,0,.14.14,0,0,1-.13-.16.15.15,0,0,1,.16-.13,10.62,10.62,0,0,0,4.94-.88.14.14,0,0,1,.19.07.14.14,0,0,1-.07.19A11,11,0,0,1,310.14,65.32Z" transform="translate(-2.76 -15.42)"/><path class="cls-4" d="M310.24,66.72a4.25,4.25,0,0,1-.64,0,.14.14,0,0,1-.12-.16.15.15,0,0,1,.16-.12c2.05.33,5.29-1.26,5.32-1.28a.14.14,0,0,1,.19.06.14.14,0,0,1-.06.19A13.41,13.41,0,0,1,310.24,66.72Z" transform="translate(-2.76 -15.42)"/><path class="cls-4" d="M310,67.79h-.32a.14.14,0,0,1-.13-.15.15.15,0,0,1,.15-.13,14.28,14.28,0,0,0,4.34-.84.14.14,0,0,1,.18.09.14.14,0,0,1-.09.18A15.64,15.64,0,0,1,310,67.79Z" transform="translate(-2.76 -15.42)"/><path class="cls-4" d="M307.73,66.49a.14.14,0,0,1-.09-.25,3.58,3.58,0,0,0,.81-2.21.14.14,0,0,1,.14-.14h0a.14.14,0,0,1,.14.15,3.78,3.78,0,0,1-.91,2.42A.14.14,0,0,1,307.73,66.49Z" transform="translate(-2.76 -15.42)"/><polygon class="cls-6" points="192.15 93.62 195.08 93.62 186.89 72.33 183.96 72.33 192.15 93.62"/><rect class="cls-6" x="194.91" y="109.04" width="31.21" height="2.57" transform="translate(418.28 205.23) rotate(180)"/><path class="cls-12" d="M264.37,174.56a6.52,6.52,0,0,0-.63-3.63,0,0,0,0,0,0,0c-.52-1.23-1.46-4.51-1.92-5.72-2-.43-4.1,2.25-6.48,3.06a12,12,0,0,1,.64,4.5,2.31,2.31,0,0,1-.14.48c-.85,2.15-4.16,3.87-5.45,5.39a1.62,1.62,0,0,0-.53,1.15C250,181.66,264.07,177.34,264.37,174.56Z" transform="translate(-2.76 -15.42)"/><path class="cls-13" d="M249.87,179.55a.53.53,0,0,0,0,.22c.08,2,14.52-2.33,14.81-5h0a1.88,1.88,0,0,0,.06-.46,7.89,7.89,0,0,0-1-3.35,0,0,0,0,0,0,0,11.73,11.73,0,0,1-7.9,2.31c-.75,1.89-3.38,3.44-4.89,4.81A2.53,2.53,0,0,0,249.87,179.55Z" transform="translate(-2.76 -15.42)"/><path class="cls-14" d="M249.87,179.55a.53.53,0,0,0,0,.22c.08,2,14.52-2.33,14.81-5h0a1.88,1.88,0,0,0,.06-.46,13.56,13.56,0,0,1-4.56,2.84A29.08,29.08,0,0,1,249.87,179.55Z" transform="translate(-2.76 -15.42)"/><path class="cls-15" d="M247.31,134.87c.52-.12,20.46-1.5,27.42-3.8,5.64-1.86,13.79-3.44,14.33-9.56.83-9.53-2.39-13.52-9-14.63-3.52-.59-8.36-2-11.51-.7-4.47,1.83-34.6,11.07-35.71,20.18C231.85,134.45,241.06,136.31,247.31,134.87Z" transform="translate(-2.76 -15.42)"/><path class="cls-15" d="M232.76,127.93c.41,6.59,12.27,35.11,17.38,42.15,5.58.62,12.2-2.38,17.75-7.3.49.27-6.86-14.06-9.64-21.07a133.69,133.69,0,0,1-4.47-15.09c-.43-1.65-.9-3.3-1.4-4.92C250.87,116.94,232.37,121.67,232.76,127.93Z" transform="translate(-2.76 -15.42)"/><path class="cls-16" d="M308.37,102.65s-13.14-2.74-24.28,4.74-14.55,26-14.55,26h0L305,110.54Z" transform="translate(-2.76 -15.42)"/><path class="cls-17" d="M259.45,113.72s-22.18,4.24-23.94,11.49,6.56,25.85,6.56,25.85l-2.35-23.87Z" transform="translate(-2.76 -15.42)"/><path class="cls-15" d="M236.86,127.6a7.29,7.29,0,0,0,.31,2.27c1.15,3.91,5.5,5.55,9.83,5.64a17.88,17.88,0,0,0,4.42-.44l2.17-.2,2-.18,3.35-.31,1.38-.14.3,0,.56-.06c1.17-.12,2.4-.25,3.63-.4l2-.25a3.23,3.23,0,0,0,.44-.06c.84-.1,1.68-.21,2.49-.34,1.37-.19,2.69-.4,3.91-.62l1-.19.22,0,.51-.1L276,132l.53-.12.74-.18.42-.11c.42-.11.81-.22,1.17-.35,5.63-1.86,13.79-3.44,14.33-9.56.37-4.25-.06-7.39-1.25-9.68-1.46-2.84-4.08-4.33-7.75-5s-6.88,1.2-10,2.48c-3.87,1.58-28.11,6.35-35.25,13.51a6.11,6.11,0,0,0-1.95,3.48.12.12,0,0,1,0,.06C236.89,127,236.87,127.29,236.86,127.6Z" transform="translate(-2.76 -15.42)"/><path class="cls-15" d="M224.22,166.83a36,36,0,0,1,9.3,2.44c2.91,1.06,6,2.31,9,3.4,0,.06.07-.06.16-.31.75-2.22,3.88-15.58,6-22a74.66,74.66,0,0,1,3.29-8.09c1-2.07,2-4.14,2.94-6.22,0,0,0-.08.07-.13.19-.4.38-.81.55-1.21.54-1.14,1-2.29,1.54-3.45.41-1-.14-2.13-1.28-3.25-3.54-3.43-12.74-6.66-16.91-4.92a3.77,3.77,0,0,0-1.19.77,3,3,0,0,0-.49.63,1.4,1.4,0,0,0-.09.17,19.78,19.78,0,0,0-1,2.08C232.58,135.05,224.78,159.08,224.22,166.83Z" transform="translate(-2.76 -15.42)"/><path class="cls-17" d="M242.51,172.67c.47-.7-17.38-6.85-18.28-5.84C223,168.22,241.14,174.73,242.51,172.67Z" transform="translate(-2.76 -15.42)"/><path class="cls-12" d="M237,178.6a6.53,6.53,0,0,0,.69-3.62,0,0,0,0,0,0,0c-.05-1.33-.16-3.28-.16-4.58a71,71,0,0,0-6.85-2.28c-.16,1.78-.36,5-.9,5.85a2.35,2.35,0,0,1-.31.4c-1.56,1.71-5.26,2.14-7,3.11a1.62,1.62,0,0,0-.91.89C221,180.14,235.69,181.09,237,178.6Z" transform="translate(-2.76 -15.42)"/><path class="cls-13" d="M221.63,178.14a.52.52,0,0,0-.09.2c-.64,1.92,14.41,3,15.62.55h0a1.89,1.89,0,0,0,.22-.41,7.89,7.89,0,0,0,.26-3.49,0,0,0,0,0,0,0,11.73,11.73,0,0,1-8.21-.63c-1.37,1.5-4.38,2-6.27,2.77A2.52,2.52,0,0,0,221.63,178.14Z" transform="translate(-2.76 -15.42)"/><path class="cls-2" d="M221.63,178.14a.52.52,0,0,0-.09.2c-.64,1.92,14.41,3,15.62.55h0a1.89,1.89,0,0,0,.22-.41,13.56,13.56,0,0,1-5.26,1A29.09,29.09,0,0,1,221.63,178.14Z" transform="translate(-2.76 -15.42)"/><path class="cls-1" d="M123.76,59.92a29.57,29.57,0,0,0-6.22,3c.45-.45,1.11-1.41,1.61-1.9s-.37-1-1.36-.18a42.34,42.34,0,0,0-5.1,5.42c-2,1.87-2.8,2.17-5.32,3.72-1,.61,3,2.73,3.83,2.84,1,.14,1.06-.59,1.66-1.29a12.27,12.27,0,0,1,5-3.18,22.29,22.29,0,0,0,4.32-2.69c1.21-.58.85-1,.55-1.36a.7.7,0,0,0-.14-.12.62.62,0,0,0,.14-.61c-.13-.32-.48-.44-.91-.46.14-.42-.07-.8-.72-.88.45-.24,2.55-1.19,3-1.35C125,60.49,124.71,59.58,123.76,59.92Z" transform="translate(-2.76 -15.42)"/><path class="cls-1" d="M118.81,64.79a.6.6,0,0,1-.4-.13.45.45,0,0,1-.17-.41c.1-.83,2.5-2.06,2.77-2.2a.15.15,0,0,1,.13.26c-1,.49-2.55,1.47-2.61,2a.16.16,0,0,0,.07.16c.39.33,2.05-.68,3.11-1.5a.15.15,0,0,1,.18.23C121.49,63.48,119.75,64.79,118.81,64.79Z" transform="translate(-2.76 -15.42)"/><path class="cls-1" d="M119.37,65.82a.81.81,0,0,1-.76-.36c-.1-.21-.12-.64.92-1.14a.15.15,0,0,1,.13.26c-.64.31-.85.6-.78.75s.59.29,1.08.06c.94-.45,2.52-1.38,2.54-1.39a.15.15,0,0,1,.2.05.15.15,0,0,1-.05.2s-1.61.94-2.56,1.4A1.65,1.65,0,0,1,119.37,65.82Z" transform="translate(-2.76 -15.42)"/><path class="cls-1" d="M120.68,66.29a.55.55,0,0,1-.25-.05.53.53,0,0,1-.32-.4.74.74,0,0,1,.24-.57.15.15,0,0,1,.2.21.47.47,0,0,0-.15.31c0,.07.06.13.17.18.29.16,1.48-.46,2.21-1a.15.15,0,0,1,.16.24A6.06,6.06,0,0,1,120.68,66.29Z" transform="translate(-2.76 -15.42)"/><path class="cls-1" d="M117.16,66.85a.14.14,0,0,1-.09,0,.15.15,0,0,1,0-.2c.56-.71-.75-2-.76-2l0,0v-.06A12.46,12.46,0,0,1,118,62.14a.15.15,0,1,1,.22.19,21.09,21.09,0,0,0-1.65,2.11c.28.3,1.36,1.54.72,2.35A.15.15,0,0,1,117.16,66.85Z" transform="translate(-2.76 -15.42)"/><path class="cls-18" d="M76.09,58.91c2.34-2.26,18.59,7.65,23.39,15s-.9,16.31-3.28,15.28S71.27,63.56,76.09,58.91Z" transform="translate(-2.76 -15.42)"/><path class="cls-18" d="M110.67,64.64C103.94,68.59,98.58,75.63,95,79s.2,10.34,1.83,10.24,15.07-5.82,20.26-12.09C117.11,77.12,112,63.85,110.67,64.64Z" transform="translate(-2.76 -15.42)"/><path class="cls-18" d="M80.8,71.85c7.88,11.44,14.63,16.81,15.4,17.36s3.23.31,10.18-3.81a49.41,49.41,0,0,0,10-7.47l.13,0c.23-.11.32-.27.49-.41a.46.46,0,0,0,.27-.67c-2.21-4-3-8.72-5.81-12.44a.49.49,0,0,0-.17-.14.39.39,0,0,0-.52,0l-1.19.82a.48.48,0,0,0-.17.64L113,72.39c.86,1.62,1.64,4,2.89,5.33-3.94,1.85-16,7.31-19.4,6.24C92.41,82.68,80.8,71.85,80.8,71.85Z" transform="translate(-2.76 -15.42)"/><path class="cls-4" d="M83.05,60.69,85,77.76a22,22,0,0,0,4.78,5.34C86.3,72.78,87,63.89,83.05,60.69Z" transform="translate(-2.76 -15.42)"/><path class="cls-15" d="M66.25,103a77.14,77.14,0,0,0,1,13.05c2.14,15.47,5.7,42-.52,51.64-.13.2,6.12,2.39,15.75,2.34h.1a64.09,64.09,0,0,0,13.1-1.47c.37-.08.34-.54.14-.79-4.65-6-5.9-25.67-6.24-35.26-.42-12,.41-39.89.15-39.93C78.14,94.87,66.8,91,66.25,103Z" transform="translate(-2.76 -15.42)"/><path class="cls-16" d="M67.3,116.06c2.14,15.47,3.7,41.69-.52,51.64-.09.22,6.12,2.39,15.75,2.34h.1c-3.36-5.39-7.89-22-8.21-28.26s2.89-40.69,2.89-40.69l-9.82,6.6Z" transform="translate(-2.76 -15.42)"/><path class="cls-14" d="M96,168.27c.36-.85-5.19-1.56-11.55-1.86l-1.06,0c-2.23-.08-4.53-.12-6.69-.09l-1.17,0c-4.41.12-9.81,1-8.75,1.39C78.91,172.54,95,170.64,96,168.27Z" transform="translate(-2.76 -15.42)"/><path class="cls-1" d="M76.7,166.28c.17,1.57.35,3.23.52,4.77.31,3,.57,5.5.52,6,0,0,0,0,0,0a6.57,6.57,0,0,0,.56,3.62c1.5-2.38,3.19-2.64,6.25-2,2.87.62,8.54,2,8.07,1.78-1.7-1-5.16-2-6.64-3.77a2.19,2.19,0,0,1-.3-.41,29.44,29.44,0,0,1-.72-4.79c-.17-1.6-.35-3.41-.51-5.12l-1.06,0C81.16,166.29,78.86,166.25,76.7,166.28Z" transform="translate(-2.76 -15.42)"/><path class="cls-2" d="M78.65,181.71a.47.47,0,0,0,.27.21c.84,0,1-2.39,1.58-2.21,7.23,2.5,13,2.79,13.57,2.28a.45.45,0,0,0,.16-.39c-.06-.7-1.49-1.65-2.1-1.88a55.78,55.78,0,0,1-6.17-3,11.74,11.74,0,0,1-8.23.34,0,0,0,0,0,0,0A7,7,0,0,0,78.65,181.71Z" transform="translate(-2.76 -15.42)"/><path class="cls-1" d="M85.43,175.79c1.45,1.92,4.9,3.14,4.9,3.14s-2.58,1.08-12.59-1.87C77.75,177.06,84.19,174.15,85.43,175.79Z" transform="translate(-2.76 -15.42)"/><path class="cls-15" d="M78.92,181.92c.84,0,1-2.39,1.58-2.21,7.23,2.5,13,2.79,13.57,2.28a.45.45,0,0,0,.16-.39c-3.93.53-7.4-.76-11.09-1.8-2.8-.79-3-1.44-4,1.42C79,181.31,78.84,181.91,78.92,181.92Z" transform="translate(-2.76 -15.42)"/><path class="cls-15" d="M69.16,136A49.27,49.27,0,0,1,50,131.3c1.92-7.23,2.54-15.51,3.73-21.26a77,77,0,0,1,3.38-12.65c4.54-11.12,9.91-4.24,21.64-2.51C80,100.9,69.37,135.36,69.16,136Z" transform="translate(-2.76 -15.42)"/><path class="cls-15" d="M53.14,127.5c4.17,5.3,10.1,5.16,16,8.55-5.63,8.28-19.46,24.26-20.6,31-.05.32-.37.66-.68.43a64.21,64.21,0,0,1-9.94-8.66l-.07-.07c-6.55-7.06-9.15-13.15-8.92-13.18C35.84,144.4,44.87,136.34,53.14,127.5Z" transform="translate(-2.76 -15.42)"/><path class="cls-16" d="M29,145.57c5.71-2,20.68-14,21.08-15.75.57-2.63,2.23-12.48,3.43-19.1a117.45,117.45,0,0,1,4.21-15.84L70.16,96.4S57.84,129,53.23,133.68c-4.42,4.44-13.58,19-15.28,25.15l-.07-.07C31.33,151.7,28.74,145.65,29,145.57Z" transform="translate(-2.76 -15.42)"/><path class="cls-14" d="M48.29,167.5c.87-.31-2.35-4.88-6.44-9.77l-.68-.81c-1.45-1.7-3-3.42-4.45-5l-.82-.85c-3.07-3.17-7.34-6.57-6.94-5.51C33.6,157.79,45.87,168.38,48.29,167.5Z" transform="translate(-2.76 -15.42)"/><path class="cls-18" d="M54.41,96.93s8.51-35.79,17-38.52c6.9-2.23,12.91.23,13.51,7.37.55,6.59,3.2,16.41,4.2,19.76a86.49,86.49,0,0,0,4.07,9.54S70.65,101.62,54.41,96.93Z" transform="translate(-2.76 -15.42)"/><path class="cls-1" d="M81.67,54.18s-1.13,3.39-1.26,4.23a3.18,3.18,0,0,1-1,1.35c-1.56-1.12-2.86-.86-3.35-1.35a23.66,23.66,0,0,0,1.59-4.23C78,52.34,81.67,54.18,81.67,54.18Z" transform="translate(-2.76 -15.42)"/><path class="cls-1" d="M76.31,51.08S77.86,56,81,55.65s.25-7-.25-7.12S77.1,48.15,76.31,51.08Z" transform="translate(-2.76 -15.42)"/><path class="cls-4" d="M79.56,47a3.06,3.06,0,0,1,2.4.42,3.45,3.45,0,0,1,.86,3l-.45,0a6.94,6.94,0,0,1-.24-1.14c-.09-.59-.18.85-.09,1.16a14.17,14.17,0,0,1-1.8,0,8.78,8.78,0,0,1-1.88-.8,7,7,0,0,1-.11,1.08c-.12.64-.21,1.7-.74,2.16-1.08.92-2.1-.66-2.28-1.57A3.77,3.77,0,0,1,79.56,47Z" transform="translate(-2.76 -15.42)"/><path class="cls-4" d="M78,53.7a3.21,3.21,0,0,1-2.48-1.1,5.14,5.14,0,0,1-.8-3.64L75,49a5,5,0,0,0,.75,3.46,3,3,0,0,0,2.31,1Z" transform="translate(-2.76 -15.42)"/><path class="cls-1" d="M78.07,51.77a1.46,1.46,0,0,0-1.47-.61c-.86.25-.77,2.37.73,2.34S78.07,51.77,78.07,51.77Z" transform="translate(-2.76 -15.42)"/><path class="cls-19" d="M77.68,53.1c-.16-.14-.4.1-.23.23s.62.86.17,1.07-1.09-.3-.74-.74c.13-.16-.1-.4-.23-.23-.52.64.17,1.43.9,1.33C78.44,54.64,78.2,53.53,77.68,53.1Z" transform="translate(-2.76 -15.42)"/><path class="cls-18" d="M72,60.69s5.21,11.19,5.9,21.8S88.37,96.26,88.37,96.26s-17.92,5-34,.67C54.41,96.93,62.39,67.21,72,60.69Z" transform="translate(-2.76 -15.42)"/><polygon class="cls-14" points="74.44 91.63 66.4 120.63 66.78 130.21 74.44 91.63"/><path class="cls-4" d="M62.07,59.86l-.13-.2c.83-.54.87-1.28.94-2.29,0-.26,0-.53.06-.82.09-.86.82-1.17,1.41-1.42s.86-.38.85-.73A5,5,0,0,1,67,50.88c.66-.6.67-.66.72-1.06A7.51,7.51,0,0,1,68.22,48a3.13,3.13,0,0,1,3.49-2l0,.23A2.85,2.85,0,0,0,68.44,48a7.19,7.19,0,0,0-.45,1.8c-.05.47-.09.57-.79,1.21a4.81,4.81,0,0,0-1.76,3.34c0,.53-.47.73-1,1s-1.19.5-1.27,1.23c0,.29,0,.56-.06.81C63.05,58.43,63,59.25,62.07,59.86Z" transform="translate(-2.76 -15.42)"/><path class="cls-20" d="M75.51,56.54a.47.47,0,0,1,.7-.4,8.35,8.35,0,0,0,5.61,1.58.47.47,0,0,1,.4.7L80.48,60.9c-.34.49-1.16,0-.81-.47l.13-.19-.26-.06c-.91-.25-1.75-.68-2.69-.89-.4-.09-.87-.1-1.12-.48A4.74,4.74,0,0,1,75.51,56.54Z" transform="translate(-2.76 -15.42)"/><path class="cls-21" d="M84.67,123.69s10-12.85,16.42-17c0,0-9-13.09-14.92-15.15,0,0-13.3,10.77-16,18.15C70.14,109.65,79.7,115,84.67,123.69Z" transform="translate(-2.76 -15.42)"/><path class="cls-7" d="M87.22,122.15s5.35-12.06,10.29-15.29c0,0-7-10.09-11.51-11.69,0,0-10.26,8.31-12.37,14C73.64,109.18,83.38,115.49,87.22,122.15Z" transform="translate(-2.76 -15.42)"/><path class="cls-22" d="M93.74,107.15a.12.12,0,0,1-.1,0c0-.06-4.73-6.52-8.18-8.77a.12.12,0,1,1,.13-.2c3.49,2.28,8.19,8.76,8.24,8.83a.12.12,0,0,1,0,.16Z" transform="translate(-2.76 -15.42)"/><path class="cls-22" d="M91.67,109.92a.12.12,0,0,1-.09,0c-.06-.07-6.2-6.77-9.26-8.72a.12.12,0,0,1,0-.16.12.12,0,0,1,.16,0c3.09,2,9.25,8.69,9.31,8.76a.12.12,0,0,1,0,.17A.12.12,0,0,1,91.67,109.92Z" transform="translate(-2.76 -15.42)"/><path class="cls-22" d="M89.17,113.11a.12.12,0,0,1-.09,0c-.06-.07-6-6.52-9.11-8.21a.12.12,0,1,1,.11-.2c3.14,1.71,9.11,8.19,9.17,8.25a.12.12,0,0,1-.09.2Z" transform="translate(-2.76 -15.42)"/><path class="cls-22" d="M87.32,116.45a.11.11,0,0,1-.08,0c-.06-.07-6.28-6.64-9.8-8.49a.12.12,0,0,1,0-.16.12.12,0,0,1,.16,0c3.55,1.86,9.8,8.47,9.86,8.53a.12.12,0,0,1,0,.17A.12.12,0,0,1,87.32,116.45Z" transform="translate(-2.76 -15.42)"/><path class="cls-21" d="M91.87,96.74l.82.46a2.19,2.19,0,1,1,2.51,3.18l.26.9a3.13,3.13,0,1,0-3.58-4.53Z" transform="translate(-2.76 -15.42)"/><path class="cls-4" d="M73.21,60.69S68,82.4,65.51,85.76s14,5.43,14,5.43l-8.66-6.6S75.45,69.72,73.21,60.69Z" transform="translate(-2.76 -15.42)"/><path class="cls-1" d="M84.77,98.87a9.55,9.55,0,0,0-2.12-3.46.64.64,0,0,0,0-.08A7.66,7.66,0,0,1,85,97.43c.36.49,1.06-.14.7-.62a9.64,9.64,0,0,0-4.84-3.47A21.39,21.39,0,0,1,73,88.52a.7.7,0,0,0-.74-.11L68.73,91a.47.47,0,0,0,.05.74,59.44,59.44,0,0,0,7.09,3.86,10.24,10.24,0,0,0,2,.68,7.91,7.91,0,0,1,2.63.74,5.36,5.36,0,0,1,1.73,2.53.46.46,0,0,0,.86-.14v0a.45.45,0,0,0,.84-.06C84.23,99.8,85,99.4,84.77,98.87Z" transform="translate(-2.76 -15.42)"/><path class="cls-1" d="M83.72,96.87a.12.12,0,0,1-.11-.07,8.56,8.56,0,0,0-1-1.3.12.12,0,0,1,.17-.16,9,9,0,0,1,1.09,1.37.12.12,0,0,1-.06.15Z" transform="translate(-2.76 -15.42)"/><path class="cls-1" d="M84,99.48a.12.12,0,0,1-.11-.08,10.35,10.35,0,0,0-2.12-3.47.12.12,0,0,1,0-.17.12.12,0,0,1,.17,0,10.58,10.58,0,0,1,2.17,3.56.11.11,0,0,1-.07.15Z" transform="translate(-2.76 -15.42)"/><path class="cls-1" d="M83.13,99.52a.12.12,0,0,1-.11-.07,8.35,8.35,0,0,0-1.86-2.85.12.12,0,1,1,.14-.18,8.41,8.41,0,0,1,1.93,3,.12.12,0,0,1-.07.15Z" transform="translate(-2.76 -15.42)"/><path class="cls-18" d="M72.05,58.21c3,1.22.58,20.1-4.2,27.47S52.58,91.5,52.56,88.91,65.85,55.71,72.05,58.21Z" transform="translate(-2.76 -15.42)"/><path class="cls-18" d="M80.89,92.14c-6.34-4.55-15-6.57-19.46-8.46s-9.36,4.39-8.6,5.84,11.45,11.4,19.29,13.58C72.12,103.1,82.17,93.05,80.89,92.14Z" transform="translate(-2.76 -15.42)"/><path class="cls-18" d="M62.15,67.78S57,82.8,57.46,87s3.89,7.53,7.8,12.85c-6.59-4.67-12.88-10-12.69-11S54.91,79.64,62.15,67.78Z" transform="translate(-2.76 -15.42)"/><path class="cls-4" d="M63.51,59.11a1.76,1.76,0,0,0,.14-.55A3,3,0,0,1,64,56.44a4.45,4.45,0,0,1,.72-.65c.67-.63,1.54-.45,1.36-2.09a1.72,1.72,0,0,1,.53-1.33c1-1,1.87-1.11,2-2.83a10.65,10.65,0,0,1,.08-1.36A2.83,2.83,0,0,1,70.35,46a5.72,5.72,0,0,1,6.38,1.39.49.49,0,0,1,.1.18.47.47,0,0,1-.14.66,15.69,15.69,0,0,0-2.8,2c-1,1.11-.82,2.33-.46,3.63a3.2,3.2,0,0,1-.29,2.84c-.23.35-.58.53-.83.85-1,1.3-.64,1.64-.14,3a3.52,3.52,0,0,1,.15,2.49,1.91,1.91,0,0,1-.61.82,2.39,2.39,0,0,1-1,.73,12.09,12.09,0,0,1-6.55.33c-1.33-.31-2.84-1.09-2.83-2.66C61.36,61,62.6,60.1,63.51,59.11Z" transform="translate(-2.76 -15.42)"/><path class="cls-16" d="M230.64,168.08c2.91,1.06,8.85,3.5,11.87,4.59,0,.06.07-.06.16-.31.75-2.22,3.88-15.58,6-22a74.66,74.66,0,0,1,3.29-8.09c1-2.07,3.39-7.15,3.56-7.55l3.35-.31,1.38-.14.3,0,.07,0a1.14,1.14,0,0,0,.5-.07c1.17-.12,2.4-.25,3.63-.4l2-.25a3.23,3.23,0,0,0,.44-.06c.84-.1,1.68-.21,2.49-.34,1.37-.19,2.69-.4,3.91-.62l1-.19.22,0,.51-.1L276,132l.53-.12.74-.18.42-.11c.42-.11.81-.22,1.17-.35,5.63-1.86,13.79-3.44,14.33-9.56.37-4.25-.06-7.39-1.25-9.68l-2.72-1.71S282.66,123.26,271,125.6c-5.33,1.08-13.75.26-19,4.1-7.49,5.5-10.39,20.72-12.06,25.61S235.71,164.7,230.64,168.08Z" transform="translate(-2.76 -15.42)"/><rect class="cls-14" x="301.59" y="129.25" width="0.94" height="52.61" transform="translate(-25.62 40.8) rotate(-10.25)"/><rect class="cls-14" x="244.73" y="155.09" width="52.61" height="0.94" transform="translate(67.04 379.23) rotate(-79.77)"/><rect class="cls-14" x="252.96" y="155.09" width="52.61" height="0.94" transform="translate(73.81 387.33) rotate(-79.77)"/><path class="cls-2" d="M308.37,102.65s-22,12.77-38.83,30.73c0,0,20.14,3.74,30.11-4.78S308.37,102.65,308.37,102.65Z" transform="translate(-2.76 -15.42)"/><rect class="cls-14" x="269.2" y="133.84" width="29.05" height="0.94"/><path class="cls-12" d="M217.89,101.66c2.82-3,6-3,9.79-4a.47.47,0,0,1,.32.87c.48,1.56.9,3.14,1.36,4.71-.45.16-.9.34-1.36.49a11.76,11.76,0,0,1-3,.57c-.34,0-.7,0-1.07,0-.68.47-1.71,1.48-2.25,2-.72.63-1.14-.2-.89-.58a9.72,9.72,0,0,1,.95-1.15,2.85,2.85,0,0,0-.61.25,5.31,5.31,0,0,0-2,2.88,3.86,3.86,0,0,1-.38,1c-.45.64-1.25,0-1.26-.52a6.87,6.87,0,0,1,.63-2.54,1,1,0,0,1-1-.9.86.86,0,0,1-.68-.65C216.21,103.17,217.4,102.18,217.89,101.66Z" transform="translate(-2.76 -15.42)"/><path class="cls-2" d="M268.55,71.92c-11-.69-16.7,15.23-19.55,23.55s2.1,12.25,5.32,10.4C264.45,100,275.22,72.34,268.55,71.92Z" transform="translate(-2.76 -15.42)"/><path class="cls-2" d="M226.12,97.31c9.78-2.57,23.74-5.73,28-3.39s.73,12-.87,12.33-11.17,4.07-23.22,5.07C230.06,111.32,224.61,97.71,226.12,97.31Z" transform="translate(-2.76 -15.42)"/><path class="cls-17" d="M264.46,74c-3.95,1.54-10,17.81-9.6,31.54a15,15,0,0,0,5.76-5.84L262,97.9S270,76.2,264.46,74Z" transform="translate(-2.76 -15.42)"/><path class="cls-2" d="M294,111.18s-4.24-32.89-14-38.53c-6.28-3.63-16-.44-18.12,4.33-4.22,9.3-6.68,34.16-6.68,34.16S277.75,115.87,294,111.18Z" transform="translate(-2.76 -15.42)"/><path class="cls-12" d="M269.16,66.83s.11,3.73.24,4.56a3.19,3.19,0,0,0,1,1.35c1.56-1.12,2.86-.86,3.35-1.35a14,14,0,0,1-.58-4.56C273.18,65,269.16,66.83,269.16,66.83Z" transform="translate(-2.76 -15.42)"/><path class="cls-12" d="M273.69,63.81s-.87,5.06-4.07,5.16-1.2-6.89-.71-7.08S272.5,61,273.69,63.81Z" transform="translate(-2.76 -15.42)"/><polygon class="cls-23" points="267.65 57.33 268.31 55.09 270.8 55.35 272.9 55.78 267.65 57.33"/><polygon class="cls-23" points="267.65 57.33 266.81 55.09 265.78 56.36 267.65 57.33"/><path class="cls-17" d="M275.66,75.88s-.67,6.62,6.62,16.29c2.59,3.44,10.29,10.48,10.29,10.48s-1-5.18-.7-7C293.32,87.36,275.66,75.88,275.66,75.88Z" transform="translate(-2.76 -15.42)"/><path class="cls-2" d="M275.87,74.5c1.59-6.64,19.7,6.91,25,13.94s-4.38,13.23-6.81,12.36S273.69,83.62,275.87,74.5Z" transform="translate(-2.76 -15.42)"/><path class="cls-2" d="M297.9,69.25c-4.16,6.83-8.37,22.13-8.12,27s10.5,5.88,11.48,4.57,9.47-17.82,9.17-28.34C310.43,72.49,298.71,67.91,297.9,69.25Z" transform="translate(-2.76 -15.42)"/><path class="cls-17" d="M267.6,59.41c.47-.21.79-.12,1,.12a1.65,1.65,0,0,1,1.67.15,1.69,1.69,0,0,1,1.37-.12.84.84,0,0,1,.28.18,1.82,1.82,0,0,1,2.52.71.5.5,0,0,1,0,.16,2.5,2.5,0,0,1,.74.93,1.85,1.85,0,0,1,.65,1.1,1.24,1.24,0,0,1-.26.94,1.21,1.21,0,0,1,.17.85,1.25,1.25,0,0,1-.34.55,1.26,1.26,0,0,1-.75,1.5,1.16,1.16,0,0,1-1.2.93.62.62,0,0,1-1,.23.47.47,0,0,1-.44-.52c0-.07,0-.13,0-.2a2.08,2.08,0,0,1,.11-1c0-.35.06-.71.11-1.06a.49.49,0,0,1,.07-.18,5.28,5.28,0,0,1-.15-1.5,1.85,1.85,0,0,1-.75-.06,1.26,1.26,0,0,1-1.48.14,1.31,1.31,0,0,1-1,.4.93.93,0,0,1-.84-1,1.47,1.47,0,0,1-.58-.42.76.76,0,0,1-.15-.78C266.9,60.78,266.68,59.83,267.6,59.41Z" transform="translate(-2.76 -15.42)"/><path class="cls-24" d="M272,64.73a1.46,1.46,0,0,1,1.37-.8c.88.13,1.09,2.24-.41,2.42S272,64.73,272,64.73Z" transform="translate(-2.76 -15.42)"/><rect class="cls-14" x="132.85" y="111.56" width="113.57" height="2.5" transform="translate(376.5 210.19) rotate(180)"/><path class="cls-4" d="M246.26,182.54a.47.47,0,0,1-.46-.4l-9.36-69.26a.47.47,0,0,1,.4-.53.46.46,0,0,1,.53.4L246.72,182a.47.47,0,0,1-.4.53Z" transform="translate(-2.76 -15.42)"/><path class="cls-4" d="M205.87,182.54h-.06a.47.47,0,0,1-.4-.53l9.36-69.26a.46.46,0,0,1,.53-.4.47.47,0,0,1,.4.53l-9.36,69.26A.47.47,0,0,1,205.87,182.54Z" transform="translate(-2.76 -15.42)"/><path class="cls-4" d="M179.38,182.54a.47.47,0,0,1-.46-.4l-9.36-69.26a.47.47,0,0,1,.4-.53.46.46,0,0,1,.53.4L179.84,182a.47.47,0,0,1-.4.53Z" transform="translate(-2.76 -15.42)"/><path class="cls-4" d="M139,182.54h-.06a.47.47,0,0,1-.4-.53l9.36-69.26a.46.46,0,0,1,.53-.4.47.47,0,0,1,.4.53l-9.36,69.26A.47.47,0,0,1,139,182.54Z" transform="translate(-2.76 -15.42)"/><path class="cls-18" d="M70.7,102c1.95-2.35,4.3-4.34,6.24-6.7.94-1.14,1.87-4.19,3.72-3.77A.49.49,0,0,1,81,92c.32,0,.59.34.34.66-2.16,2.81-4.32,5.61-6.6,8.33-.91,1.09-2.57,3.46-4,1.69A.48.48,0,0,1,70.7,102Z" transform="translate(-2.76 -15.42)"/><path class="cls-18" d="M74.72,58.33c.21-.73.34-2.72,1.49-2.45.79.19,1.56.85,2.37,1.09a13.87,13.87,0,0,0,3.46.49c.33-.13.79.11.64.53a8.18,8.18,0,0,0-.46,2.1c0,.6-1,.6-.94,0a9.37,9.37,0,0,1,.32-1.72l-.59,0L80.56,60a.47.47,0,0,1-.9-.25l.41-1.5c-.26,0-.52-.09-.78-.14a5,5,0,0,1-.57,1.24c-.33.5-1.14,0-.81-.47a4.2,4.2,0,0,0,.47-1l-.47-.13a4.13,4.13,0,0,1-.55,1.41c-.32.51-1.13,0-.81-.47A3.48,3.48,0,0,0,77,57.35,6.66,6.66,0,0,0,76.3,57,1.21,1.21,0,0,1,76,56.9a.28.28,0,0,1,0,.23c-.17.46-.28,1-.42,1.44A.47.47,0,0,1,74.72,58.33Z" transform="translate(-2.76 -15.42)"/></svg>