<svg id="Layer_1" data-name="Layer 1" xmlns="http://www.w3.org/2000/svg" viewBox="0 0 347.13 164.34"><defs><style>.cls-1{fill:#ebf0f3;}.cls-2{fill:#c4d6d6;}.cls-3{fill:#3b4062;}.cls-4{fill:#252739;}.cls-5{fill:#e1eaef;}.cls-6{fill:#2f3451;}.cls-7{fill:#101017;}.cls-8{fill:#002d41;}.cls-9{fill:#003b4b;}.cls-10{fill:#25273a;}.cls-11{fill:#eff7ff;}.cls-12{fill:#fab69a;}.cls-13{fill:#ff710f;stroke:#ff710f;stroke-miterlimit:10;}.cls-14{fill:#282b3d;}.cls-15{fill:#ff6c1e;}.cls-16{fill:#ffd34b;}.cls-17{fill:#b7d0e3;}.cls-18{fill:#0083e5;}.cls-19{fill:#0094f8;}.cls-20{fill:#cee0ea;}.cls-21{fill:#fff;}.cls-22{fill:#0093f8;}</style></defs><title>illustrations 2 350x200</title><ellipse class="cls-1" cx="173.56" cy="159.91" rx="173.56" ry="4.43"/><path class="cls-2" d="M101.7,177.54c-1.91-.75-5.32-1-6.91-2.54a2.39,2.39,0,0,1-.33-.38,5.53,5.53,0,0,1-1-3,12.83,12.83,0,0,0-6.92,1.34c.08,1.31,0,1.89.07,3.23a0,0,0,0,0,0,0,10,10,0,0,0,1,3.66A82.07,82.07,0,0,0,101.7,177.54Z" transform="translate(-1.94 -23)"/><path class="cls-3" d="M103.45,179.2c0,.84-14.75,2.71-15.69,1.57h0a1.43,1.43,0,0,1-.14-.19l-.11-.21a14.45,14.45,0,0,1-.93-4.19,0,0,0,0,1,0,0A11.81,11.81,0,0,0,94.78,175c1.47,1.42,4.54,1.75,6.49,2.38A2.57,2.57,0,0,1,103.45,179.2Z" transform="translate(-1.94 -23)"/><path class="cls-4" d="M103.52,179.48c0,.84-14.67,2.78-15.6,1.64,0,0-.26-.49-.31-.56,4.92.38,12-.73,15.79-1.47C103.42,179.13,103.51,179.45,103.52,179.48Z" transform="translate(-1.94 -23)"/><path class="cls-2" d="M133.39,61l.1-.08c.48-.44-.29-1.37-.78-.93l-.11.07a.63.63,0,0,0-.95-.52,10,10,0,0,1-4.9.84,6.81,6.81,0,0,1,1.8-.84c.63-.13.48-1.14-.15-1a10,10,0,0,0-1,.29,19.85,19.85,0,0,0-7.64,4.87,13.32,13.32,0,0,0-1.08,1,.51.51,0,0,0-.06.51,15.19,15.19,0,0,0,1.91,2.94.5.5,0,0,0,.19.13.5.5,0,0,0,.85.48,40.12,40.12,0,0,1,3-3.4,23.76,23.76,0,0,0,8.2-1.65c.53-.24.28-1.13-.2-1.1h0a7.3,7.3,0,0,0,1-.59C134,61.69,133.72,61.08,133.39,61Z" transform="translate(-1.94 -23)"/><path class="cls-2" d="M127.2,61.67h-.07a.12.12,0,0,1,0-.24h.07a13.38,13.38,0,0,0,5.35-1.51.12.12,0,0,1,.11.21A13.67,13.67,0,0,1,127.2,61.67Z" transform="translate(-1.94 -23)"/><path class="cls-2" d="M127.63,63h-.22a.12.12,0,0,1,0-.24h.21c2.15,0,5.67-1.85,5.71-1.87a.12.12,0,1,1,.11.21C133.29,61.15,129.84,63,127.63,63Z" transform="translate(-1.94 -23)"/><path class="cls-2" d="M127.77,64a.12.12,0,0,1,0-.24,19.55,19.55,0,0,0,4.8-1.29.12.12,0,0,1,.09.22A19.38,19.38,0,0,1,127.77,64Z" transform="translate(-1.94 -23)"/><path class="cls-1" d="M75,55.81c10.11-4.66,21.25,8.25,27,15s2.49,12.29-1.22,11.72C89.08,80.75,68.86,58.63,75,55.81Z" transform="translate(-1.94 -23)"/><path class="cls-1" d="M119.36,59.69c-7.77,2.17-19.65,7.81-22.82,11.57s3.69,11.56,5.31,11.28,16.54-4.69,23.56-12.65C125.41,69.89,120.88,59.26,119.36,59.69Z" transform="translate(-1.94 -23)"/><path class="cls-5" d="M125.41,69.89s-10.55,11.28-24.68,12.66c-1.75.17-11.57-5.17-11.57-5.17l1.4-8s6.83,9.52,10.23,10.17S125.41,69.89,125.41,69.89Z" transform="translate(-1.94 -23)"/><path class="cls-3" d="M99.63,171.36c.41.4-3.59-37.11-3.82-44.11-.23-7.38-.8-14.79-1.58-22.14-.64-6,.26-13.41-4.2-17.7-.29-.28-16,1-18.5,7.29-1.33,3.34-.29,7,.3,10.42.84,4.78,4.49,33.28,4.74,42.86.23,8.69.79,17.37,3.83,25.59C84.65,175.14,93.88,173.39,99.63,171.36Z" transform="translate(-1.94 -23)"/><path class="cls-6" d="M79.47,101.24s2.85,34.76,4.26,40.91,2.92,26.66,7.2,31.43c0,0-6.62,1.37-10.53,0,0,0-3-8.15-3.69-21.51s-5.84-42.55-5.84-42.55Z" transform="translate(-1.94 -23)"/><polygon class="cls-4" points="76.95 81.03 71.34 101.08 73.31 114.72 76.95 81.03"/><path class="cls-3" d="M78.52,90.88c-.21-.34-15.3-5.8-19.41-.42-.11.15-.23.31-.33.48-1.89,3-2.23,8.88-2.54,12.12-.47,4.84-4.6,33.27-6.93,42.57-2.1,8.44-3.89,17-3.16,25.69a47.59,47.59,0,0,1,19.11,3c.28.49,6.48-36.73,8.15-43.52,1.76-7.18,3.19-14.47,4.41-21.76C78.81,103.16,81.67,96.21,78.52,90.88Z" transform="translate(-1.94 -23)"/><path class="cls-4" d="M46.16,171.32c.2-1,17.55,0,19.11,3C65.8,175.35,45.87,172.78,46.16,171.32Z" transform="translate(-1.94 -23)"/><path class="cls-2" d="M50.22,178.89a6.58,6.58,0,0,1,.25-3.71,0,0,0,0,1,0,0c.4-1.29.61-1.82,1-3.09a12.85,12.85,0,0,1,7,.91,5.54,5.54,0,0,0,0,3.21,2.35,2.35,0,0,0,.2.47c1.08,2.06,4.58,3.44,6,4.83a1.64,1.64,0,0,1,.66,1.1C65.42,184.49,50.82,181.64,50.22,178.89Z" transform="translate(-1.94 -23)"/><path class="cls-3" d="M65.29,182.37a.52.52,0,0,1,0,.21c.13,2-14.81-.81-15.38-3.47h0a1.93,1.93,0,0,1-.11-.46,8,8,0,0,1,.65-3.47,0,0,0,0,1,0,0,11.82,11.82,0,0,0,8.16,1.49c.95,1.81,3.75,3.1,5.41,4.31A2.54,2.54,0,0,1,65.29,182.37Z" transform="translate(-1.94 -23)"/><path class="cls-4" d="M65.29,182.37a.52.52,0,0,1,0,.21c.13,2-14.81-.81-15.38-3.47h0a1.93,1.93,0,0,1-.11-.46A13.67,13.67,0,0,0,54.7,181,29.31,29.31,0,0,0,65.29,182.37Z" transform="translate(-1.94 -23)"/><path class="cls-6" d="M64.54,97.54s-5.14,10.81-5,15.8,1.37,25-2,33-3.75,24.8-3.75,24.8-6.93-1-7.65.14c-.73-8.74,1.06-17.25,3.16-25.69,2.33-9.3,6.46-37.73,6.93-42.57.31-3.24.65-9.09,2.54-12.12l5.76,1.52Z" transform="translate(-1.94 -23)"/><path class="cls-4" d="M93.45,94.91S75.72,99.64,57,96.31l.58-4.44Z" transform="translate(-1.94 -23)"/><path class="cls-7" d="M86.47,57.51s3.88,2.16,6.24,11.86a66.92,66.92,0,0,1,1.52,10.7l-3.59-2.22Z" transform="translate(-1.94 -23)"/><path class="cls-8" d="M56.16,94.6s4.28-33.16,14.11-38.85c6.33-3.66,16.1-.44,18.28,4.37,4.25,9.38,6.73,34.45,6.73,34.45S72.54,99.33,56.16,94.6Z" transform="translate(-1.94 -23)"/><path class="cls-2" d="M81.21,49.88s-.11,3.76-.24,4.6a3.21,3.21,0,0,1-1,1.36c-1.58-1.13-2.88-.87-3.38-1.36a14.16,14.16,0,0,0,.58-4.6C77.15,48,81.21,49.88,81.21,49.88Z" transform="translate(-1.94 -23)"/><path class="cls-2" d="M76.64,46.83s.88,5.11,4.1,5.21,1.2-7,.72-7.15S77.83,44,76.64,46.83Z" transform="translate(-1.94 -23)"/><path class="cls-9" d="M73.3,56.72s4.1,4.4,4,9-5.6,12.51-4.73,19.35,7,11.4,7,11.4-12.6.67-19.37-.8S59.88,76,59.88,76Z" transform="translate(-1.94 -23)"/><path class="cls-7" d="M66.68,112.19,57,112a1.1,1.1,0,0,0-1.13,1.1l-.09,6.55,12.1.19.09-6.39A1.3,1.3,0,0,0,66.68,112.19Zm-.41,7.39-9-.16.07-5.22a.87.87,0,0,1,.9-.87l7.11.13a1,1,0,0,1,1,1Z" transform="translate(-1.94 -23)"/><path class="cls-8" d="M79,142.38H41.62a1.42,1.42,0,0,1-1.41-1.25l.33-21.22A1.42,1.42,0,0,1,42,118.33h36.7a1.42,1.42,0,0,1,1.41,1.58l.33,21.22A1.42,1.42,0,0,1,79,142.38Z" transform="translate(-1.94 -23)"/><polygon class="cls-8" points="41.37 94.5 39.74 95.39 78.4 118.93 79.97 118.07 41.37 94.5"/><path class="cls-8" d="M80.53,141.55H43.16a1.42,1.42,0,0,1-1.41-1.25l.33-21.22a1.42,1.42,0,0,1,1.41-1.58h36.7a1.42,1.42,0,0,1,1.41,1.58l.33,21.22A1.42,1.42,0,0,1,80.53,141.55Z" transform="translate(-1.94 -23)"/><polygon class="cls-7" points="79.78 102.9 40.01 102.9 39.93 102.28 79.76 102.19 79.78 102.9"/><circle cx="49.9" cy="102.9" r="1.83"/><circle cx="70.19" cy="102.9" r="1.83"/><path class="cls-1" d="M73.3,56.72c5.24,9.82-4.7,22.37-11.13,28.47S48.4,82.34,49,79.8,70.12,50.76,73.3,56.72Z" transform="translate(-1.94 -23)"/><path class="cls-2" d="M66.63,110.14a26,26,0,0,0-3.75-2.29l-.2-.36A23.35,23.35,0,0,1,59.37,95a.52.52,0,0,0-.07-.29.68.68,0,0,0-.69-.51l-7.67-.48c-.54,0-1,.47-.91.85a64.71,64.71,0,0,0,3.62,10.7c.42,1,4.13,6,4.11,7h0a3.21,3.21,0,0,0,1,2.62.68.68,0,0,0,1-.36,1.11,1.11,0,0,0,1,.39.81.81,0,0,0,.77-.49.92.92,0,0,0,1.24.28,1,1,0,0,0,.48-.54,1,1,0,0,0,1.21.14c1.3-.6.07-3.1-.36-4,.11.08,1.59.92,1.69,1C66.66,112.07,67.58,110.9,66.63,110.14Z" transform="translate(-1.94 -23)"/><path class="cls-1" d="M66,106.85c.71-8-2.32-23.74-4.72-28s-12.12-.62-12.42,1-.6,20.34,4.37,29.72C53.25,109.52,65.88,108.42,66,106.85Z" transform="translate(-1.94 -23)"/><path class="cls-7" d="M80.57,42.4a2.18,2.18,0,0,0-1.4-.22c-.59.11-1,.56-1.53.62a1.75,1.75,0,0,0-1.76,2,.46.46,0,0,0-.09.1,2.26,2.26,0,0,0-.3,2.39c-.51.92.27,2.12.86,2.87a.4.4,0,0,0,.17.12.49.49,0,0,0,.89-.08c.38-1.12,0-2.46.47-3.49a7.49,7.49,0,0,1,1-1.33,1.62,1.62,0,0,0,1.41-.19c1.06.56,2.81.32,3.11-1C83.76,42.49,81.87,42,80.57,42.4Z" transform="translate(-1.94 -23)"/><path class="cls-10" d="M78.3,47.76A1.47,1.47,0,0,0,76.92,47c-.89.13-1.1,2.26.41,2.44S78.3,47.76,78.3,47.76Z" transform="translate(-1.94 -23)"/><path class="cls-7" d="M82.53,49.64c-.29-.08-.65-.11-.8-.31S81,49,81,49.41c-.33.48-1.11.72-1.37.4a2.14,2.14,0,0,1-.38-.37,4.07,4.07,0,0,1-.56-.92,9,9,0,0,1-.58-1.94c-.13-.59-1-.34-.91.25a9,9,0,0,0,.88,2.55.5.5,0,0,0,0,.22C78.43,51,79,52,80.55,52.19a2.44,2.44,0,0,0,1.61-.34C82.62,51.5,82.64,49.89,82.53,49.64Z" transform="translate(-1.94 -23)"/><path class="cls-10" d="M93.9,105.24a3.93,3.93,0,0,1-2.6-.78c-.91-.91-1-8.43-1-8.75a.12.12,0,0,1,.12-.12h0a.12.12,0,0,1,.12.12c0,2.15.25,7.89,1,8.59a4.2,4.2,0,0,0,2.75.7h0a.12.12,0,0,1,0,.24Z" transform="translate(-1.94 -23)"/><path class="cls-5" d="M68.58,57.23S51.85,70.84,48.87,79.8s3,28,4.37,29.72c0,0-3.49-24.29-1.44-28.78S68.58,57.23,68.58,57.23Z" transform="translate(-1.94 -23)"/><path class="cls-10" d="M79.7,171.44a.12.12,0,0,1,0-.24c.16,0,15.65-.2,19.7-3a.12.12,0,0,1,.13.2c-4.11,2.82-19.19,3-19.83,3Z" transform="translate(-1.94 -23)"/><path class="cls-10" d="M65.9,171.63l-.07,0C60,167.66,46.15,168.43,46,168.44h0a.12.12,0,0,1,0-.24c.14,0,14.05-.78,20,3.21a.12.12,0,0,1-.07.22Z" transform="translate(-1.94 -23)"/><path class="cls-7" d="M81.11,55.65a5.1,5.1,0,0,0-1.82.51.48.48,0,0,0-.29.27.51.51,0,0,0,.07.76,6.59,6.59,0,0,0,1.33.67.48.48,0,0,0,.59-.31,6.08,6.08,0,0,0,.31-1.41C81.33,55.89,81.35,55.66,81.11,55.65Z" transform="translate(-1.94 -23)"/><path class="cls-7" d="M86.59,69a.42.42,0,0,0,0-.26c-1.4-4-2.87-8-5.51-11.37a.37.37,0,0,0-.55-.07.49.49,0,0,0-.26.67c1.77,3.74,2.42,7.77,3,11.83a.46.46,0,0,0,.07.18.39.39,0,0,0,.15.25,11.75,11.75,0,0,0,2.25,1.46.48.48,0,0,0,.71-.41c.08-.7.13-1.4.15-2.1A.47.47,0,0,0,86.59,69Z" transform="translate(-1.94 -23)"/><polygon class="cls-11" points="78.01 32.85 76.93 35.06 74.03 31.19 74.79 31 78.01 32.85"/><polygon class="cls-11" points="78.01 32.85 79.65 34.03 79.65 31.94 79.03 31.48 78.01 32.85"/><path class="cls-8" d="M307.4,104s-13.25-2.76-24.48,4.78S268.24,135,268.24,135h0L304,112Z" transform="translate(-1.94 -23)"/><path class="cls-10" d="M275.13,77a49.49,49.49,0,0,0-3.18-9.49c-1.81.21-2.49-.17-4.27.25.21,6.61-2.21,13.17-3.18,19.7,0,.23.05.54.33.58l5.65.78a.48.48,0,0,0,.6-.46c0-3.06-.09-6.11-.19-9.16a60.31,60.31,0,0,1,1,9.05.48.48,0,0,0,.6.46c1.95-.38,3.92-.07,4.2-2.28C277,83.32,275.89,79.89,275.13,77Z" transform="translate(-1.94 -23)"/><path class="cls-3" d="M224.14,128.5c-5.36,7.39-9.8,33.56-9.82,41.4,5.07,0,12.05,2.7,18.8,4.62,0,.06.07-.06.14-.32.6-2.29,2.84-15.94,4.55-22.56a76.88,76.88,0,0,1,2.75-8.36c.83-2.15,1.71-4.3,2.54-6.46l.05-.13c.63-1.59,1.24-3.21,1.78-4.83C246.47,127.29,225.52,126.6,224.14,128.5Z" transform="translate(-1.94 -23)"/><path class="cls-7" d="M233.11,174.52c.42-.74-18-5.71-18.8-4.62C213.17,171.38,231.87,176.69,233.11,174.52Z" transform="translate(-1.94 -23)"/><path class="cls-6" d="M237.64,139.74c.53-.12,20.63-1.51,27.65-3.84,5.68-1.88,13.9-3.47,14.45-9.64.84-9.61-2.41-13.63-9.08-14.75-3.55-.59-8.43-2-11.61-.71-4.5,1.84-34.89,11.17-36,20.35C222,139.32,231.34,141.19,237.64,139.74Z" transform="translate(-1.94 -23)"/><path class="cls-7" d="M249.88,118.42s-22.36,4.27-24.14,11.59,16.82,38.35,16.82,38.35L230,132Z" transform="translate(-1.94 -23)"/><path class="cls-3" d="M227.1,132.42a7.32,7.32,0,0,0,.31,2.29c1.57,5.33,9,6.48,14.37,5.25l2.19-.2c1.34-.12,3.21-.28,5.35-.49,6.62-.65,15.82-1.72,20.11-3.14,5.68-1.88,13.9-3.47,14.45-9.64.38-4.29-.07-7.46-1.26-9.76-1.47-2.86-4.12-4.37-7.82-5-3.55-.59-6.94,1.21-10.12,2.5-4.5,1.84-36.38,8-37.51,17.13a.13.13,0,0,1,0,.06C227.12,131.77,227.1,132.11,227.1,132.42Z" transform="translate(-1.94 -23)"/><path class="cls-3" d="M227.16,133.63c0,.06,0,.13,0,.19a22.23,22.23,0,0,0,.68,2.21c3,8.64,13.36,31.89,18.19,38.07,4-3.13,11.14-5.33,17.63-8,.05,0,0-.09-.09-.34-.94-2.17-7.63-14.28-10.37-20.55a76.92,76.92,0,0,1-3-8.27c-.68-2.2-1.32-4.43-2-6.64,0,0,0-.09,0-.14-.49-1.64-1-3.29-1.59-4.9-1.61-4.54-19.18,1.61-19.51,7.57A2.77,2.77,0,0,0,227.16,133.63Z" transform="translate(-1.94 -23)"/><path class="cls-6" d="M243.08,136c.16.7.47,2,.88,3.76,2,8.6,10.93,25.24,10.39,29.68,0,0,8.33-3.46,9.35-3.32,0,0-5.6-11-9.31-18.39a29.65,29.65,0,0,1-3.15-8.65c6.62-.65,13.88-1.52,18.18-2.95,5.68-1.88,13.9-3.47,14.45-9.64.38-4.29-.07-7.46-1.26-9.76L279.87,115s-6.59,13-18.3,15.39c-5.37,1.08-9.9,1.48-13.14,2C244.6,133,242.57,133.76,243.08,136Z" transform="translate(-1.94 -23)"/><path class="cls-7" d="M263.7,166.12c-.13-.84-17.64,6.62-17.63,8C246.08,176,264.07,168.58,263.7,166.12Z" transform="translate(-1.94 -23)"/><path class="cls-12" d="M224.39,86.8l-.07-.08c-.29-.44.52-1,.81-.57l.07.08a.51.51,0,0,1,.86-.21,8.21,8.21,0,0,0,3.7,1.65,5.54,5.54,0,0,0-1.25-1c-.47-.23-.14-1,.33-.75a8.13,8.13,0,0,1,.74.43,16,16,0,0,1,5,5.35,10.55,10.55,0,0,1,.64,1,.4.4,0,0,1-.06.41,12.4,12.4,0,0,1-2.12,1.9.42.42,0,0,1-.18.07.41.41,0,0,1-.78.2,31.9,31.9,0,0,0-1.7-3.27,19.49,19.49,0,0,1-6.14-3c-.37-.29,0-.94.39-.82h0a5.85,5.85,0,0,1-.7-.67C223.73,87.24,224.1,86.82,224.39,86.8Z" transform="translate(-1.94 -23)"/><path class="cls-12" d="M229.22,88.65h0a10.84,10.84,0,0,1-4.07-2.33.12.12,0,0,1,.16-.17,10.83,10.83,0,0,0,4,2.27.12.12,0,0,1,0,.23Z" transform="translate(-1.94 -23)"/><path class="cls-12" d="M228.72,89.6h0c-1.77-.34-4.28-2.61-4.38-2.71a.12.12,0,0,1,.16-.18S227,89,228.74,89.36a.12.12,0,0,1,0,.23Z" transform="translate(-1.94 -23)"/><path class="cls-12" d="M228.22,90.34h0a15.76,15.76,0,0,1-3.59-2,.12.12,0,1,1,.14-.19,16,16,0,0,0,3.52,2,.12.12,0,0,1,0,.23Z" transform="translate(-1.94 -23)"/><path class="cls-13" d="M268.14,77.94c-2.62-2-14,12.74-23.88,20.19-7.08,5.33,5.19,13.91,7.44,12.58S273.52,82,268.14,77.94Z" transform="translate(-1.94 -23)"/><path class="cls-13" d="M234.21,87.89c7.23,3.13,13.44,9.52,17.41,12.44s1.06,10.37-.58,10.47-15.8-4-21.75-9.64C229.28,101.16,232.76,87.27,234.21,87.89Z" transform="translate(-1.94 -23)"/><path class="cls-14" d="M264.5,81.15s-12.11,22.89-16,24.67-19.22-4.65-19.22-4.65,3.47,3.34,11.75,7c7.46,3.28,10,3.28,10.66,2.57C266.47,94.29,262.81,96.13,264.5,81.15Z" transform="translate(-1.94 -23)"/><path class="cls-13" d="M290.3,118.51S286,81.87,277.77,78.35c-6.72-2.87-13-1-14.25,6.16-1.15,6.53-3.31,15-4.66,18.42a86.34,86.34,0,0,1-5.42,9.72S273.56,121.72,290.3,118.51Z" transform="translate(-1.94 -23)"/><path class="cls-15" d="M276.89,80.59s-7.2,10.67-8.87,21.27-9.16,12.89-9.16,12.89,14.93,6.67,31.44,3.77C290.3,118.51,286,88,276.89,80.59Z" transform="translate(-1.94 -23)"/><path class="cls-12" d="M264,123.35a.46.46,0,0,0,.85.06h0a.47.47,0,0,0,.87.13,5.41,5.41,0,0,1,1.75-2.55,8,8,0,0,1,2.65-.74,10.38,10.38,0,0,0,2.05-.68,60,60,0,0,0,7.15-3.89.48.48,0,0,0,.05-.75l-3.56-2.6a.48.48,0,0,0-.57,0,.48.48,0,0,0-.19.12,21.57,21.57,0,0,1-7.94,4.86,9.72,9.72,0,0,0-4.88,3.5c-.36.48.35,1.11.71.62a7.74,7.74,0,0,1,2.38-2.12.81.81,0,0,0,0,.08,9.65,9.65,0,0,0-2.14,3.49C263,123.39,263.71,123.79,264,123.35Z" transform="translate(-1.94 -23)"/><path class="cls-12" d="M264.23,120.84h0a.12.12,0,0,1-.06-.15,9,9,0,0,1,1.1-1.38.12.12,0,0,1,.17,0,.12.12,0,0,1,0,.17,8.63,8.63,0,0,0-1.06,1.31A.12.12,0,0,1,264.23,120.84Z" transform="translate(-1.94 -23)"/><path class="cls-12" d="M264,123.47h0a.12.12,0,0,1-.07-.15,10.66,10.66,0,0,1,2.19-3.59.12.12,0,0,1,.17.17,10.43,10.43,0,0,0-2.13,3.5A.12.12,0,0,1,264,123.47Z" transform="translate(-1.94 -23)"/><path class="cls-12" d="M264.82,123.51h0a.12.12,0,0,1-.07-.15,8.48,8.48,0,0,1,2-3,.12.12,0,1,1,.15.19,8.41,8.41,0,0,0-1.88,2.88A.12.12,0,0,1,264.82,123.51Z" transform="translate(-1.94 -23)"/><path class="cls-13" d="M277.59,81c-3,1.23-.58,20.27,4.24,27.71s15.4,5.86,15.42,3.25S283.84,78.51,277.59,81Z" transform="translate(-1.94 -23)"/><path class="cls-13" d="M268.67,115.24c6.4-4.59,15.08-6.63,19.62-8.53s9.44,4.43,8.68,5.89-11.55,11.49-19.45,13.7C277.52,126.29,267.39,116.16,268.67,115.24Z" transform="translate(-1.94 -23)"/><path class="cls-14" d="M287.57,90.68s5.21,15.14,4.73,19.39-14.78,16.22-14.78,16.22,4.65-1.26,12-6.49c6.65-4.71,7.87-6.88,7.69-7.81S294.87,102.64,287.57,90.68Z" transform="translate(-1.94 -23)"/><path class="cls-12" d="M267.68,73s1.24,4,1.37,4.8c0,.26,3.79,0,4.29-.54A23.93,23.93,0,0,1,271.73,73C271.35,71.18,267.68,73,267.68,73Z" transform="translate(-1.94 -23)"/><path class="cls-12" d="M273.08,69.91s-1.56,4.94-4.77,4.6-.25-7.05.25-7.18S272.28,67,273.08,69.91Z" transform="translate(-1.94 -23)"/><path class="cls-10" d="M270.61,65.72c-2-.4-4.44,0-4.74,2.23a.48.48,0,0,0,.33.58,11.33,11.33,0,0,0,4.84.2,7.32,7.32,0,0,0,.1.84c.12.64.21,1.71.75,2.18,1.09.93,2.12-.67,2.3-1.58A3.78,3.78,0,0,0,270.61,65.72Z" transform="translate(-1.94 -23)"/><path class="cls-10" d="M280.1,80.6c-1.31-5.1-3.76-14.73-9.49-14.88-.31,0,1.29.82,1.19,1.13-.41,1.38.12,2.46.18,3.86a4.2,4.2,0,0,0-.45,1.2c.23,6.66-1.09,12.59-2.06,19.16,0,.23.05.54.33.58l5.65.78A.48.48,0,0,0,276,92c0-3.06-.09-6.11-.19-9.16a60.07,60.07,0,0,1,1,9.05.48.48,0,0,0,.6.46c1.95-.38,3.92-.07,4.2-2.28C282,87,280.85,83.54,280.1,80.6Z" transform="translate(-1.94 -23)"/><path class="cls-12" d="M271.31,70.61a1.48,1.48,0,0,1,1.48-.61c.87.25.78,2.39-.74,2.36S271.31,70.61,271.31,70.61Z" transform="translate(-1.94 -23)"/><path class="cls-16" d="M271.7,71.95c.16-.14.4.1.24.24s-.62.87-.17,1.08,1.1-.3.75-.74c-.13-.17.1-.4.24-.24.52.65-.17,1.44-.9,1.34C270.94,73.5,271.18,72.38,271.7,71.95Z" transform="translate(-1.94 -23)"/><path class="cls-10" d="M282.66,90.59c-.53-8.72-4.25-19.37-7-22.37S270.3,66,270.27,66l-.07-.22s2.88-.84,5.67,2.25,6.49,13.76,7,22.52Z" transform="translate(-1.94 -23)"/><path class="cls-12" d="M262.61,173.42a6.58,6.58,0,0,0-1.92-3.18l0,0c-.94-1-1.47-1.42-2.35-2.4a48.23,48.23,0,0,0-6.57,2.88,12.64,12.64,0,0,1,2.3,4.08,2.4,2.4,0,0,1,0,.51c0,2.33-2.51,5.15-3.16,7.05a1.64,1.64,0,0,0-.08,1.28C251.64,185.34,263.33,176.14,262.61,173.42Z" transform="translate(-1.94 -23)"/><path class="cls-8" d="M250.79,183.39a.53.53,0,0,0,.06.21c.81,1.87,12.8-7.49,12.09-10.11h0a1.91,1.91,0,0,0-.11-.46,8,8,0,0,0-2.16-2.79,0,0,0,0,0,0,0,11.82,11.82,0,0,1-6.58,5.06c0,2-1.92,4.47-2.84,6.3A2.55,2.55,0,0,0,250.79,183.39Z" transform="translate(-1.94 -23)"/><path class="cls-4" d="M250.79,183.39a.53.53,0,0,0,.06.21c.81,1.87,12.8-7.49,12.09-10.11h0a1.91,1.91,0,0,0-.11-.46,13.65,13.65,0,0,1-3.25,4.33A29.33,29.33,0,0,1,250.79,183.39Z" transform="translate(-1.94 -23)"/><path class="cls-12" d="M224.26,181.47a6.58,6.58,0,0,0,1.48-3.41,0,0,0,0,0,0,0c.24-1.33,1.07-4.44,1.35-5.72-2-.75-5.51-1.36-6.82-1.73-.55,1.71-1.37,4-2.1,4.71a2.39,2.39,0,0,1-.39.33c-1.91,1.34-5.65,1-7.57,1.52a1.64,1.64,0,0,0-1.09.68C208.18,179.48,222.46,183.64,224.26,181.47Z" transform="translate(-1.94 -23)"/><path class="cls-8" d="M209.28,177.65a.54.54,0,0,0-.13.17c-1.05,1.75,13.53,6.07,15.25,4h0a1.89,1.89,0,0,0,.31-.35,8,8,0,0,0,1-3.38,0,0,0,0,0,0,0,11.82,11.82,0,0,1-7.94-2.42c-1.67,1.18-4.76,1-6.78,1.35A2.54,2.54,0,0,0,209.28,177.65Z" transform="translate(-1.94 -23)"/><path class="cls-4" d="M209.28,177.65a.54.54,0,0,0-.13.17c-1.05,1.75,13.53,6.07,15.25,4h0a1.89,1.89,0,0,0,.31-.35,13.65,13.65,0,0,1-5.41-.13A29.31,29.31,0,0,1,209.28,177.65Z" transform="translate(-1.94 -23)"/><rect class="cls-4" x="300.56" y="130.83" width="0.94" height="53.05" transform="translate(-25.13 33.07) rotate(-10.25)"/><rect class="cls-4" x="243.23" y="156.89" width="53.05" height="0.94" transform="translate(65.04 371.87) rotate(-79.77)"/><rect class="cls-4" x="251.53" y="156.89" width="53.05" height="0.94" transform="translate(71.87 380.04) rotate(-79.77)"/><path class="cls-13" d="M307.4,104s-21.88,14.27-38.84,32.38c0,0,20,2.37,30-6.21S307.4,104,307.4,104Z" transform="translate(-1.94 -23)"/><rect class="cls-4" x="268.75" y="128.01" width="29.29" height="0.94"/><rect class="cls-4" x="153.82" y="112.36" width="103.21" height="2.52" transform="translate(408.91 204.24) rotate(180)"/><path class="cls-10" d="M256.86,183.93a.47.47,0,0,1-.47-.41L247,113.68a.47.47,0,0,1,.4-.53.46.46,0,0,1,.53.4l9.44,69.84a.47.47,0,0,1-.4.53Z" transform="translate(-1.94 -23)"/><path class="cls-10" d="M216.14,183.93h-.06a.47.47,0,0,1-.4-.53l9.44-69.84a.46.46,0,0,1,.53-.4.47.47,0,0,1,.4.53l-9.44,69.84A.47.47,0,0,1,216.14,183.93Z" transform="translate(-1.94 -23)"/><path class="cls-10" d="M200.74,183.93a.47.47,0,0,1-.47-.41l-9.44-69.84a.47.47,0,0,1,.4-.53.46.46,0,0,1,.53.4l9.44,69.84a.47.47,0,0,1-.4.53Z" transform="translate(-1.94 -23)"/><path class="cls-10" d="M160,183.93H160a.47.47,0,0,1-.4-.53L169,113.55a.46.46,0,0,1,.53-.4.47.47,0,0,1,.4.53l-9.44,69.84A.47.47,0,0,1,160,183.93Z" transform="translate(-1.94 -23)"/><polygon class="cls-17" points="195.99 86.22 199.56 86.22 192.95 68.95 189.38 68.95 195.99 86.22"/><rect class="cls-17" x="197.92" y="109.22" width="38.13" height="3.14" transform="translate(432.04 198.57) rotate(180)"/><path class="cls-1" d="M259.42,23H218.16a5.93,5.93,0,0,0-5.93,5.93V51.54a5.93,5.93,0,0,0,5.93,5.93H244l6.25,8.42a1.16,1.16,0,0,0,2.09-.69V57.47h7.13a5.93,5.93,0,0,0,5.93-5.93V28.93A5.93,5.93,0,0,0,259.42,23Z" transform="translate(-1.94 -23)"/><rect class="cls-18" x="218.99" y="4.1" width="4.59" height="25.01"/><rect class="cls-19" x="227.28" y="10.82" width="4.59" height="18.29"/><rect class="cls-18" x="235.57" y="20.93" width="4.59" height="8.17"/><rect class="cls-19" x="243.86" y="13.69" width="4.59" height="15.42"/><rect class="cls-18" x="252.15" y="22.97" width="4.59" height="6.13"/><circle class="cls-1" cx="179.02" cy="45.97" r="11.56" transform="translate(-7.17 37.5) rotate(-18.91)"/><circle class="cls-20" cx="179.02" cy="45.97" r="10.22" transform="translate(-7.17 37.5) rotate(-18.91)"/><path class="cls-21" d="M179.82,49.63l-1.07-3.12a4.34,4.34,0,0,1-2.57-.53,3.34,3.34,0,0,1-1.38-1.82,3.07,3.07,0,0,1,.07-2.32,3.28,3.28,0,0,1,1.72-1.66l-.25-.74,1.08-.37.25.74a3.38,3.38,0,0,1,2.16.16,3.3,3.3,0,0,1,1.5,1.48l-1.8.89a1.6,1.6,0,0,0-1.3-.88l1,2.91a5.09,5.09,0,0,1,2.86.42,3.14,3.14,0,0,1,1.32,1.75,3.5,3.5,0,0,1,0,2.55A3.78,3.78,0,0,1,181.5,51L182,52.4l-1.08.37-.46-1.35a3.64,3.64,0,0,1-2.42-.24,4.16,4.16,0,0,1-1.8-1.92l1.87-.87a2.62,2.62,0,0,0,.8.87A2.15,2.15,0,0,0,179.82,49.63Zm-2.68-7.81a1.47,1.47,0,0,0-.53.75,1.38,1.38,0,0,0,0,.88,1.32,1.32,0,0,0,.49.65,1.73,1.73,0,0,0,.91.3Zm3.79,7.55a1.6,1.6,0,0,0,.73-.83,1.54,1.54,0,0,0,0-1.09,1.4,1.4,0,0,0-.59-.76,2,2,0,0,0-1.15-.22Z" transform="translate(-1.94 -23)"/><path class="cls-10" d="M161.08,98.69l-4-15,15-4,4,15ZM157.72,84l3.73,14,14-3.73-3.73-14Z" transform="translate(-1.94 -23)"/><path class="cls-22" d="M167.48,93.94a1.47,1.47,0,0,1-.47-.08l-7-2.35a1.47,1.47,0,1,1,.94-2.79l5.84,2,6.64-12.17A1.47,1.47,0,0,1,176,79.93l-7.23,13.25A1.47,1.47,0,0,1,167.48,93.94Z" transform="translate(-1.94 -23)"/><circle class="cls-1" cx="292.1" cy="46.95" r="9.06" transform="translate(148.9 283.89) rotate(-70.61)"/><circle class="cls-20" cx="292.1" cy="46.95" r="8.02" transform="translate(148.9 283.89) rotate(-70.61)"/><path class="cls-21" d="M290.82,49.58l.86-2.44a3.4,3.4,0,0,1-1.33-1.58,2.62,2.62,0,0,1,0-1.79,2.41,2.41,0,0,1,1.17-1.39,2.58,2.58,0,0,1,1.87-.18l.2-.58.84.3-.2.58a2.65,2.65,0,0,1,1.25,1.15,2.58,2.58,0,0,1,.21,1.64L294.17,45a1.26,1.26,0,0,0-.37-1.18l-.8,2.27a4,4,0,0,1,1.56,1.65,2.46,2.46,0,0,1,0,1.72A2.74,2.74,0,0,1,293.26,51a3,3,0,0,1-2.08.26l-.38,1.09L290,52l.37-1.06A2.86,2.86,0,0,1,289,49.65a3.27,3.27,0,0,1-.18-2.06l1.58.37a2.06,2.06,0,0,0,.07.93A1.68,1.68,0,0,0,290.82,49.58ZM293,43.47a1.15,1.15,0,0,0-.69.2,1.08,1.08,0,0,0-.42.55,1,1,0,0,0,0,.64,1.36,1.36,0,0,0,.41.63ZM291.63,50a1.26,1.26,0,0,0,.85-.15,1.21,1.21,0,0,0,.54-.66,1.1,1.1,0,0,0,0-.75,1.57,1.57,0,0,0-.6-.7Z" transform="translate(-1.94 -23)"/></svg>